# Blender 5.1.1
# www.blender.org
mtllib petal.mtl
o Cube.006
v 0.095503 -0.195394 -0.139247
v 0.204814 -0.292005 -0.018132
v 0.082808 -0.270692 0.111077
v 0.191509 -0.298534 0.052770
v 0.208792 -0.121066 -0.111144
v 0.251654 -0.261274 -0.006513
v 0.196097 -0.196365 0.139181
v 0.238349 -0.267803 0.064390
v 0.072213 -0.061883 -0.342891
v 0.013603 -0.175111 0.193097
v 0.159189 -0.004819 -0.321315
v 0.100707 -0.117963 0.214705
v 0.073185 -0.240829 0.011058
v 0.079057 -0.216662 -0.076534
v 0.202336 -0.297076 0.005061
v 0.197431 -0.298361 0.028230
v 0.193565 -0.141536 -0.048128
v 0.187692 -0.165703 0.039463
v 0.244399 -0.267546 0.039882
v 0.249304 -0.266261 0.016712
v 0.004997 -0.149422 0.020646
v 0.016448 -0.101681 -0.151781
v 0.127906 -0.028556 -0.124132
v 0.116497 -0.076269 0.048306
v -0.044695 0.117265 -0.376372
v -0.122394 -0.022598 0.313256
v 0.026748 0.164137 -0.358649
v -0.047707 0.026402 0.331784
v -0.119073 0.007623 0.105446
v -0.089994 0.067142 -0.169193
v 0.015848 0.136583 -0.142936
v -0.012149 0.077773 0.131970
v -0.169599 0.258475 -0.282339
v -0.223660 0.133055 0.307378
v -0.116799 0.293117 -0.269241
v -0.150615 0.180978 0.325498
v -0.197480 0.125460 0.109864
v -0.185577 0.187052 -0.101018
v -0.088882 0.250491 -0.077031
v -0.093361 0.193771 0.135693
v -0.236443 0.313115 -0.125158
v -0.283210 0.251202 0.232065
v -0.184232 0.347370 -0.112207
v -0.225009 0.289386 0.246503
v -0.283494 0.263696 0.113958
v -0.253735 0.267887 -0.021668
v -0.205631 0.299447 -0.009735
v -0.224436 0.302443 0.128608
v 0.080913 -0.212283 -0.095332
v 0.082980 -0.208102 -0.112894
v 0.086006 -0.203563 -0.128766
v 0.119886 -0.223629 -0.103094
v 0.151162 -0.249956 -0.071065
v 0.182272 -0.275333 -0.040191
v 0.196270 -0.298861 0.034236
v 0.195139 -0.299430 0.040298
v 0.193881 -0.299823 0.046482
v 0.169483 -0.295079 0.063588
v 0.139464 -0.288864 0.078997
v 0.109091 -0.282025 0.094867
v 0.172117 -0.214716 0.140121
v 0.140291 -0.235927 0.133272
v 0.108310 -0.256578 0.124292
v 0.203830 -0.293391 0.054190
v 0.217339 -0.284870 0.057363
v 0.230348 -0.275993 0.060769
v 0.232346 -0.253836 0.079182
v 0.221989 -0.234721 0.099469
v 0.210929 -0.215211 0.120129
v 0.190884 -0.171966 0.065630
v 0.195317 -0.178593 0.092799
v 0.199514 -0.185879 0.119532
v 0.250768 -0.265887 0.011232
v 0.252292 -0.265483 0.005855
v 0.253474 -0.264717 0.000313
v 0.245135 -0.234090 -0.024597
v 0.233687 -0.195812 -0.050593
v 0.221724 -0.156815 -0.077832
v 0.121539 -0.177761 -0.137488
v 0.153674 -0.156632 -0.130395
v 0.185346 -0.135899 -0.121660
v 0.244005 -0.271351 -0.006560
v 0.231035 -0.280437 -0.009570
v 0.217487 -0.288749 -0.013138
v 0.024175 -0.092711 -0.204479
v 0.035630 -0.084105 -0.258221
v 0.051436 -0.074338 -0.306522
v 0.080838 -0.134135 0.230454
v 0.056463 -0.151174 0.231300
v 0.032433 -0.165893 0.218447
v 0.117836 -0.085662 0.095407
v 0.117318 -0.094782 0.142395
v 0.112442 -0.105068 0.183938
v 0.097671 -0.045997 -0.362123
v 0.123880 -0.029075 -0.364138
v 0.145999 -0.014290 -0.350135
v 0.067826 -0.246906 0.128210
v 0.053315 -0.222256 0.147630
v 0.035875 -0.199874 0.168884
v 0.083397 -0.096344 -0.296522
v 0.088190 -0.128499 -0.240926
v 0.090191 -0.161886 -0.186807
v 0.193176 -0.094319 -0.161260
v 0.181079 -0.067556 -0.217883
v 0.172101 -0.038147 -0.274518
v 0.124588 -0.141671 0.190891
v 0.146204 -0.161313 0.170673
v 0.170812 -0.179339 0.153757
v 0.074375 -0.267980 0.088490
v 0.072848 -0.258943 0.062418
v 0.072684 -0.249515 0.036309
v 0.074201 -0.233342 -0.012842
v 0.075603 -0.226967 -0.035354
v 0.077264 -0.221481 -0.056558
v 0.205771 -0.296015 -0.011521
v 0.204784 -0.296652 -0.005930
v 0.203565 -0.296856 -0.000477
v 0.201096 -0.297321 0.010706
v 0.199856 -0.297605 0.016455
v 0.198630 -0.297945 0.022300
v 0.211144 -0.121462 -0.097723
v 0.205450 -0.127752 -0.082513
v 0.199112 -0.134734 -0.066011
v 0.189459 -0.147872 -0.028726
v 0.187028 -0.153863 -0.007713
v 0.186396 -0.159733 0.014990
v 0.241585 -0.268526 0.058315
v 0.242647 -0.268261 0.052084
v 0.243472 -0.267893 0.045945
v 0.245455 -0.267224 0.033916
v 0.246634 -0.266915 0.028059
v 0.247921 -0.266600 0.022321
v 0.003537 -0.176519 0.156922
v 0.000658 -0.171321 0.113455
v 0.002100 -0.161595 0.066697
v 0.007150 -0.136628 -0.021872
v 0.009024 -0.124030 -0.062742
v 0.011746 -0.112193 -0.105025
v 0.160202 -0.002979 -0.279541
v 0.152173 -0.007644 -0.229311
v 0.139831 -0.016831 -0.175788
v 0.120150 -0.041072 -0.078134
v 0.116413 -0.053574 -0.036103
v 0.115571 -0.065495 0.005023
v 0.171092 -0.143525 0.040107
v 0.154278 -0.122586 0.041018
v 0.137137 -0.101407 0.042358
v 0.177953 -0.113271 -0.067563
v 0.162333 -0.086245 -0.087565
v 0.146473 -0.059039 -0.107353
v 0.018512 0.040061 0.113577
v 0.052359 -0.000123 0.090300
v 0.086177 -0.040176 0.066999
v 0.101845 0.010992 -0.132591
v 0.073076 0.053818 -0.138042
v 0.044128 0.096672 -0.142817
v 0.214255 -0.295535 0.031627
v 0.226770 -0.287989 0.034669
v 0.238408 -0.279689 0.037619
v 0.219118 -0.295590 0.012170
v 0.231630 -0.288153 0.015512
v 0.243271 -0.279744 0.018161
v 0.061092 -0.189942 -0.096552
v 0.047089 -0.161854 -0.116154
v 0.033186 -0.133365 -0.135456
v 0.054231 -0.220195 0.011118
v 0.039035 -0.198195 0.012430
v 0.023846 -0.175735 0.014254
v 0.234769 -0.244772 0.040244
v 0.219492 -0.218156 0.039919
v 0.203699 -0.191310 0.039558
v 0.239825 -0.238744 0.003923
v 0.224737 -0.206154 -0.012964
v 0.209155 -0.173226 -0.030262
v 0.173742 -0.282100 -0.012470
v 0.140877 -0.261173 -0.033767
v 0.107986 -0.239601 -0.055359
v 0.168687 -0.288128 0.023851
v 0.135633 -0.273175 0.019117
v 0.102530 -0.257685 0.014461
v -0.081846 0.079956 -0.234243
v -0.072294 0.091992 -0.292770
v -0.060267 0.104133 -0.341302
v -0.066590 0.011208 0.349404
v -0.087803 -0.003645 0.351576
v -0.107640 -0.015724 0.339221
v -0.017863 0.064826 0.195409
v -0.024574 0.052565 0.251965
v -0.033962 0.040066 0.298477
v -0.025253 0.131751 -0.395229
v -0.004597 0.145880 -0.397999
v 0.013870 0.157419 -0.385524
v -0.129338 -0.022508 0.274817
v -0.129657 -0.016378 0.225897
v -0.125514 -0.005802 0.168704
v -0.112129 0.022445 0.038251
v -0.105001 0.037792 -0.031072
v -0.097639 0.052934 -0.100796
v 0.031595 0.164402 -0.318514
v 0.029816 0.158984 -0.267440
v 0.023778 0.149254 -0.208042
v 0.008008 0.122247 -0.074589
v 0.000693 0.107136 -0.004853
v -0.006043 0.092046 0.064568
v -0.140592 0.227391 -0.310876
v -0.108672 0.191765 -0.335437
v -0.076524 0.155555 -0.359087
v -0.114800 0.099974 -0.156028
v -0.138865 0.129909 -0.138190
v -0.162768 0.159422 -0.119889
v -0.023981 -0.112448 0.039673
v -0.056619 -0.071621 0.063266
v -0.089321 -0.030686 0.086827
v -0.063138 0.026297 -0.169427
v -0.035542 -0.017445 -0.164986
v -0.008129 -0.061160 -0.159872
v -0.011648 -0.011083 0.307434
v 0.027218 -0.048074 0.276135
v 0.065976 -0.084722 0.244404
v -0.013752 0.073216 -0.376053
v 0.016872 0.027086 -0.369369
v 0.047030 -0.018953 -0.361226
v 0.130771 0.035988 -0.340453
v 0.096642 0.079421 -0.349581
v 0.061962 0.122890 -0.357271
v -0.018314 -0.140023 0.223494
v -0.053631 -0.101118 0.256079
v -0.089062 -0.061873 0.288230
v -0.184512 0.206051 -0.154435
v -0.182109 0.224591 -0.205283
v -0.177445 0.242217 -0.249328
v -0.172957 0.171601 0.343963
v -0.195000 0.158899 0.346497
v -0.213112 0.145256 0.334002
v -0.102283 0.189036 0.191403
v -0.114874 0.187249 0.244843
v -0.131022 0.185524 0.291159
v -0.158100 0.272792 -0.300860
v -0.144278 0.284117 -0.304556
v -0.129917 0.291282 -0.293869
v -0.224261 0.124352 0.268030
v -0.217525 0.119901 0.219379
v -0.207312 0.120128 0.165349
v -0.191053 0.136022 0.056022
v -0.187703 0.150730 0.003617
v -0.186266 0.168202 -0.048386
v -0.106338 0.288869 -0.231689
v -0.098479 0.279458 -0.184538
v -0.092802 0.266221 -0.131685
v -0.086470 0.233675 -0.023630
v -0.086006 0.217452 0.028844
v -0.088099 0.203568 0.081562
v -0.178998 0.291529 -0.023155
v -0.148786 0.279371 -0.040882
v -0.118346 0.266553 -0.058985
v -0.137961 0.311498 -0.229758
v -0.154944 0.326169 -0.185984
v -0.171352 0.339837 -0.142884
v -0.010579 0.168352 -0.130174
v -0.036336 0.197176 -0.112756
v -0.062121 0.225456 -0.094922
v -0.071347 0.165264 0.136404
v -0.052667 0.137052 0.136856
v -0.034000 0.108649 0.136855
v -0.140668 0.038666 0.110394
v -0.159313 0.067083 0.110401
v -0.177804 0.095419 0.109996
v -0.084074 0.264471 -0.296855
v -0.047169 0.232116 -0.320180
v -0.009944 0.199238 -0.342570
v -0.076001 0.065254 0.336912
v -0.101488 0.104601 0.335091
v -0.126626 0.143811 0.332304
v -0.200420 0.095396 0.313998
v -0.175343 0.056146 0.316770
v -0.149918 0.016759 0.318575
v -0.250307 0.276057 -0.053157
v -0.247755 0.288075 -0.081723
v -0.243719 0.302283 -0.105973
v -0.238537 0.283781 0.249886
v -0.255981 0.272266 0.249063
v -0.273196 0.261042 0.241288
v -0.223710 0.303766 0.164362
v -0.222638 0.302362 0.197769
v -0.223291 0.297847 0.226449
v -0.226994 0.326118 -0.124962
v -0.210902 0.338786 -0.123532
v -0.195316 0.346901 -0.117104
v -0.289706 0.254273 0.209974
v -0.291504 0.257180 0.180686
v -0.289060 0.260891 0.148151
v -0.275899 0.264188 0.079421
v -0.267538 0.263703 0.045076
v -0.259715 0.264261 0.011266
v -0.185417 0.340534 -0.091510
v -0.189751 0.326131 -0.067335
v -0.197178 0.310914 -0.039977
v -0.213139 0.294820 0.022820
v -0.219016 0.295537 0.057113
v -0.222903 0.298958 0.092567
v -0.244623 0.300762 0.125128
v -0.261000 0.290954 0.121189
v -0.276323 0.279964 0.117264
v -0.222368 0.295635 -0.008233
v -0.235527 0.287582 -0.011040
v -0.247811 0.278942 -0.014545
v -0.241817 0.166312 0.290113
v -0.258136 0.197977 0.269000
v -0.273680 0.228823 0.247928
v -0.268115 0.232827 0.112363
v -0.244584 0.196680 0.111386
v -0.220439 0.160217 0.110489
v -0.124602 0.223094 0.134263
v -0.159177 0.252713 0.132573
v -0.193711 0.281642 0.130820
v -0.210336 0.270381 0.263642
v -0.191088 0.241966 0.285632
v -0.171426 0.212493 0.307574
v -0.205356 0.209467 -0.080569
v -0.224040 0.229998 -0.059550
v -0.242067 0.250150 -0.038800
v -0.225722 0.304166 -0.156371
v -0.208588 0.290974 -0.199292
v -0.190550 0.276995 -0.242803
v 0.101975 -0.264439 0.034584
v 0.134867 -0.277682 0.034127
v 0.167700 -0.290402 0.033842
v 0.101821 -0.272032 0.055422
v 0.134361 -0.282770 0.049620
v 0.166846 -0.292971 0.044078
v 0.102465 -0.279678 0.076468
v 0.134455 -0.287865 0.065254
v 0.166340 -0.295462 0.054392
v 0.131944 -0.268942 0.105320
v 0.157844 -0.278026 0.087092
v 0.183444 -0.286644 0.069221
v 0.160630 -0.250282 0.112853
v 0.181052 -0.262899 0.093136
v 0.201139 -0.275141 0.073746
v 0.189223 -0.231362 0.119529
v 0.204212 -0.247605 0.098594
v 0.218732 -0.263492 0.077974
v 0.213514 -0.168046 -0.043868
v 0.228041 -0.202708 -0.023556
v 0.242102 -0.237011 -0.003819
v 0.218627 -0.162508 -0.056202
v 0.231858 -0.199006 -0.033283
v 0.244642 -0.235147 -0.011121
v 0.223596 -0.157189 -0.067604
v 0.235519 -0.195482 -0.042381
v 0.246959 -0.233349 -0.018136
v 0.200243 -0.170462 -0.085962
v 0.216216 -0.207030 -0.057106
v 0.231934 -0.243038 -0.029344
v 0.171676 -0.189168 -0.093309
v 0.193081 -0.222189 -0.063021
v 0.214376 -0.254662 -0.033777
v 0.142964 -0.208041 -0.100171
v 0.169847 -0.237452 -0.068608
v 0.196646 -0.266189 -0.038098
v 0.053347 -0.229947 0.041548
v 0.053681 -0.239411 0.072750
v 0.056960 -0.246675 0.102800
v 0.037566 -0.208743 0.048080
v 0.037724 -0.217888 0.084469
v 0.041868 -0.223440 0.118767
v 0.021703 -0.187119 0.055155
v 0.021167 -0.196406 0.096952
v 0.024948 -0.201423 0.136073
v 0.244504 -0.279754 0.013321
v 0.232844 -0.288193 0.010723
v 0.220334 -0.295611 0.007325
v 0.245742 -0.279761 0.008487
v 0.234059 -0.288234 0.005934
v 0.221549 -0.295634 0.002486
v 0.246643 -0.279162 0.003264
v 0.234865 -0.287685 0.000701
v 0.222307 -0.295129 -0.002773
v 0.078163 -0.071538 0.212373
v 0.084047 -0.060601 0.168834
v 0.085946 -0.050587 0.118728
v 0.039808 -0.034492 0.243644
v 0.046773 -0.022725 0.198999
v 0.050245 -0.011645 0.146462
v 0.001368 0.002853 0.274551
v 0.009438 0.015393 0.228891
v 0.014504 0.027481 0.174038
v 0.185063 -0.105151 -0.093220
v 0.192497 -0.097761 -0.118220
v 0.197368 -0.092732 -0.141404
v 0.171194 -0.076876 -0.122266
v 0.180042 -0.069191 -0.157363
v 0.185018 -0.065144 -0.190170
v 0.157137 -0.048387 -0.151114
v 0.167965 -0.039986 -0.196344
v 0.174492 -0.035862 -0.238873
v 0.173554 -0.106792 -0.176301
v 0.145095 -0.125416 -0.186337
v 0.115113 -0.145134 -0.190799
v 0.164749 -0.078293 -0.238003
v 0.140008 -0.094562 -0.249361
v 0.112640 -0.112481 -0.250930
v 0.157752 -0.048091 -0.299594
v 0.134850 -0.063296 -0.312431
v 0.108405 -0.080466 -0.311836
v 0.090838 -0.235248 0.145388
v 0.120194 -0.216798 0.155730
v 0.149280 -0.196905 0.159885
v 0.074110 -0.212199 0.168125
v 0.100263 -0.196125 0.179474
v 0.126219 -0.178011 0.181051
v 0.055500 -0.190376 0.192159
v 0.080153 -0.175313 0.204379
v 0.104852 -0.157996 0.204402
v 0.178161 -0.167158 0.132866
v 0.177259 -0.158334 0.103406
v 0.174101 -0.150723 0.071503
v 0.156057 -0.148522 0.147094
v 0.158292 -0.138785 0.114378
v 0.156794 -0.130520 0.077657
v 0.135655 -0.128790 0.163536
v 0.139587 -0.118713 0.126328
v 0.139194 -0.110035 0.084301
v 0.169660 -0.136289 0.011002
v 0.170219 -0.128875 -0.016105
v 0.172930 -0.121223 -0.042023
v 0.152848 -0.114150 0.007361
v 0.153356 -0.105174 -0.024127
v 0.156338 -0.095819 -0.055189
v 0.135757 -0.091781 0.004117
v 0.136247 -0.081255 -0.031817
v 0.139516 -0.070213 -0.068091
v -0.013722 -0.072655 -0.106925
v -0.017605 -0.085452 -0.057426
v -0.020713 -0.098925 -0.009264
v -0.042060 -0.029795 -0.106045
v -0.047354 -0.043370 -0.048803
v -0.052010 -0.057527 0.007411
v -0.070531 0.013091 -0.104696
v -0.077197 -0.001251 -0.039896
v -0.083379 -0.016064 0.024202
v 0.086825 -0.028371 0.017413
v 0.089041 -0.015483 -0.030970
v 0.093742 -0.002150 -0.080266
v 0.054986 0.012671 0.033953
v 0.058944 0.026370 -0.022434
v 0.064789 0.040307 -0.079539
v 0.023113 0.053804 0.050620
v 0.028789 0.068285 -0.013604
v 0.035730 0.082807 -0.078336
v 0.234579 -0.279404 0.052535
v 0.222784 -0.287645 0.049301
v 0.210243 -0.295370 0.046498
v 0.236029 -0.279667 0.047394
v 0.224341 -0.287908 0.044247
v 0.211836 -0.295540 0.041392
v 0.237215 -0.279677 0.042503
v 0.225556 -0.287949 0.039458
v 0.213045 -0.295535 0.036507
v 0.239611 -0.279703 0.032741
v 0.227985 -0.288030 0.029880
v 0.215469 -0.295542 0.026753
v 0.240823 -0.279717 0.027872
v 0.229200 -0.288071 0.025091
v 0.216685 -0.295554 0.021884
v 0.242043 -0.279732 0.023012
v 0.230415 -0.288112 0.020301
v 0.217901 -0.295570 0.017023
v 0.076167 -0.172249 -0.171469
v 0.068919 -0.178839 -0.148876
v 0.064310 -0.184375 -0.123175
v 0.070828 -0.140062 -0.218497
v 0.059474 -0.148293 -0.187272
v 0.051966 -0.155100 -0.151842
v 0.063796 -0.108487 -0.266333
v 0.049554 -0.117673 -0.225717
v 0.039652 -0.125467 -0.180258
v 0.058686 -0.196177 -0.070363
v 0.056847 -0.203256 -0.044229
v 0.055416 -0.211242 -0.017339
v 0.043939 -0.169562 -0.083071
v 0.041905 -0.178295 -0.051774
v 0.040449 -0.187893 -0.020521
v 0.029277 -0.142539 -0.095438
v 0.027024 -0.152915 -0.058912
v 0.025516 -0.164108 -0.023230
v 0.213562 -0.206790 0.104027
v 0.224922 -0.228512 0.087695
v 0.235629 -0.250003 0.071581
v 0.209713 -0.201246 0.082186
v 0.222758 -0.224774 0.071548
v 0.235238 -0.248100 0.061044
v 0.206078 -0.196139 0.060408
v 0.220695 -0.221372 0.055418
v 0.234785 -0.246389 0.050483
v 0.202922 -0.186789 0.019941
v 0.219371 -0.215152 0.025241
v 0.235304 -0.243263 0.030422
v 0.203682 -0.182412 0.001700
v 0.220282 -0.212248 0.011482
v 0.236364 -0.241806 0.021068
v 0.205815 -0.177963 -0.015068
v 0.222109 -0.209298 -0.001279
v 0.237891 -0.240325 0.012222
v 0.112499 -0.230078 -0.095163
v 0.145052 -0.254835 -0.064823
v 0.177670 -0.278808 -0.035324
v 0.110735 -0.233294 -0.082966
v 0.143461 -0.257002 -0.055212
v 0.176250 -0.280018 -0.028087
v 0.109411 -0.236347 -0.069692
v 0.142212 -0.259018 -0.044847
v 0.175018 -0.281024 -0.020461
v 0.106441 -0.243161 -0.039719
v 0.139450 -0.263529 -0.021784
v 0.172419 -0.283279 -0.004019
v 0.104907 -0.247217 -0.022803
v 0.138024 -0.266217 -0.008924
v 0.171096 -0.284627 0.004877
v 0.103548 -0.251987 -0.004710
v 0.136712 -0.269383 0.004736
v 0.169833 -0.286218 0.014181
v -0.120977 0.084363 -0.089841
v -0.127163 0.068323 -0.022481
v -0.133635 0.052781 0.044712
v -0.142951 0.112750 -0.076336
v -0.147286 0.095777 -0.013973
v -0.152522 0.080163 0.048430
v -0.164776 0.140810 -0.062570
v -0.167269 0.123004 -0.005428
v -0.171270 0.107406 0.051954
v -0.027682 0.122295 0.070995
v -0.021703 0.137513 0.003680
v -0.016018 0.153224 -0.063805
v -0.046605 0.149654 0.074704
v -0.042040 0.164827 0.012135
v -0.038707 0.181143 -0.050477
v -0.065597 0.176736 0.078168
v -0.062469 0.191761 0.020569
v -0.061474 0.208585 -0.036944
v -0.090132 0.141698 -0.324375
v -0.100354 0.128196 -0.276623
v -0.108230 0.114478 -0.219338
v -0.120186 0.177022 -0.300941
v -0.128417 0.161944 -0.254026
v -0.134323 0.146311 -0.198505
v -0.150041 0.211770 -0.276664
v -0.156297 0.195144 -0.230680
v -0.160245 0.177650 -0.177048
v 0.026987 -0.031564 -0.323753
v 0.011548 -0.041860 -0.273664
v 0.000061 -0.051253 -0.217017
v -0.001771 0.014361 -0.332644
v -0.016184 0.003536 -0.282925
v -0.027173 -0.006648 -0.225332
v -0.030924 0.060368 -0.340227
v -0.044238 0.048992 -0.291072
v -0.054655 0.037998 -0.232751
v 0.113395 0.023103 -0.188903
v 0.124945 0.032538 -0.245534
v 0.132177 0.037449 -0.297659
v 0.083655 0.066064 -0.197839
v 0.093558 0.075535 -0.255702
v 0.099111 0.080548 -0.307619
v 0.053638 0.109047 -0.205887
v 0.061786 0.118552 -0.264771
v 0.065563 0.123672 -0.316292
v -0.027732 -0.125170 0.090529
v -0.029853 -0.135329 0.140579
v -0.027622 -0.140942 0.186131
v -0.061258 -0.084800 0.118802
v -0.063959 -0.095374 0.171530
v -0.062243 -0.101446 0.218329
v -0.094851 -0.044265 0.146911
v -0.098145 -0.055190 0.202203
v -0.096962 -0.061660 0.250158
v 0.117887 0.027113 -0.369705
v 0.096600 0.013006 -0.383671
v 0.071463 -0.003345 -0.381222
v 0.083786 0.071210 -0.378071
v 0.063418 0.057921 -0.391558
v 0.039719 0.042298 -0.389003
v 0.049108 0.115360 -0.384903
v 0.029670 0.102908 -0.397873
v 0.007449 0.088028 -0.395237
v -0.000428 -0.131421 0.249400
v 0.022652 -0.117322 0.262282
v 0.046322 -0.100749 0.260997
v -0.036771 -0.093277 0.282004
v -0.014821 -0.079949 0.294696
v 0.007937 -0.063945 0.293094
v -0.073239 -0.054763 0.314132
v -0.052421 -0.042195 0.326622
v -0.030570 -0.026769 0.324717
v -0.154464 0.217260 0.276338
v -0.141274 0.219010 0.234064
v -0.131453 0.220152 0.185217
v -0.177933 0.247705 0.258445
v -0.169022 0.250312 0.221321
v -0.163167 0.251432 0.178088
v -0.201258 0.277219 0.240586
v -0.196731 0.280789 0.208576
v -0.194855 0.281959 0.170928
v -0.229591 0.155765 0.160873
v -0.238457 0.155250 0.209957
v -0.243658 0.158742 0.254213
v -0.252627 0.192739 0.155896
v -0.259318 0.191070 0.198922
v -0.262030 0.192531 0.237583
v -0.274997 0.229379 0.151048
v -0.279460 0.226512 0.188053
v -0.279631 0.225800 0.221145
v -0.120038 0.281548 -0.107750
v -0.123321 0.295403 -0.154647
v -0.129021 0.306069 -0.196406
v -0.146750 0.293197 -0.082940
v -0.146115 0.307579 -0.122710
v -0.148355 0.319557 -0.157842
v -0.173199 0.304151 -0.058564
v -0.168610 0.319039 -0.091257
v -0.167303 0.332266 -0.119862
v -0.022917 0.193694 -0.368966
v -0.040302 0.183278 -0.381004
v -0.059153 0.169920 -0.377955
v -0.060265 0.227879 -0.346197
v -0.076527 0.218660 -0.357821
v -0.093486 0.206082 -0.354438
v -0.097277 0.261534 -0.322455
v -0.112439 0.253494 -0.333657
v -0.127548 0.241673 -0.329964
v -0.136322 0.024768 0.344833
v -0.117048 0.037110 0.357243
v -0.095729 0.051400 0.354903
v -0.162937 0.065785 0.343405
v -0.144074 0.078660 0.355936
v -0.122381 0.092393 0.353465
v -0.189168 0.106649 0.340959
v -0.170699 0.120056 0.353597
v -0.148642 0.133237 0.351012
v -0.005646 0.181781 -0.193890
v -0.002703 0.192263 -0.252399
v -0.003539 0.198511 -0.302894
v -0.034912 0.211533 -0.173844
v -0.035420 0.222958 -0.230957
v -0.039094 0.230226 -0.280824
v -0.064118 0.240716 -0.153202
v -0.067973 0.253092 -0.208770
v -0.074390 0.261403 -0.257897
v -0.148068 0.026932 0.173027
v -0.153768 0.018642 0.230284
v -0.155231 0.014888 0.279641
v -0.167692 0.057594 0.171035
v -0.175205 0.052291 0.227691
v -0.178780 0.051648 0.277294
v -0.187124 0.088193 0.168442
v -0.196400 0.085860 0.224341
v -0.202032 0.088301 0.274068
v -0.060689 0.076915 0.303094
v -0.049391 0.087122 0.256176
v -0.040898 0.097244 0.199612
v -0.084306 0.113631 0.300730
v -0.070885 0.120733 0.253569
v -0.060561 0.127881 0.197610
v -0.107651 0.150223 0.297481
v -0.092205 0.154220 0.250188
v -0.080150 0.158376 0.194978
v -0.242932 0.287302 -0.044492
v -0.229016 0.296982 -0.040536
v -0.214326 0.306070 -0.037396
v -0.238952 0.300218 -0.072038
v -0.223337 0.311221 -0.067952
v -0.207168 0.321071 -0.064153
v -0.234435 0.315601 -0.097128
v -0.218112 0.327674 -0.093856
v -0.201689 0.337085 -0.089005
v -0.279177 0.270331 0.213291
v -0.261020 0.282644 0.219391
v -0.242389 0.294467 0.222417
v -0.281153 0.274665 0.182886
v -0.262755 0.287496 0.187889
v -0.243572 0.299321 0.192209
v -0.280141 0.278219 0.150639
v -0.262920 0.290433 0.154992
v -0.244728 0.301452 0.159424
v -0.270051 0.278924 0.083527
v -0.256518 0.288686 0.087100
v -0.241918 0.297382 0.090506
v -0.262385 0.276814 0.049982
v -0.250142 0.285635 0.053313
v -0.236870 0.293555 0.056311
v -0.254560 0.276024 0.017125
v -0.242827 0.284400 0.020406
v -0.230135 0.292049 0.023184
v -0.198070 0.260767 -0.213534
v -0.202197 0.243654 -0.174213
v -0.204202 0.226329 -0.128628
v -0.216244 0.275016 -0.174683
v -0.220216 0.258963 -0.141092
v -0.222238 0.243670 -0.101666
v -0.233551 0.288802 -0.136296
v -0.237444 0.273878 -0.108332
v -0.239550 0.260620 -0.075023
v -0.120311 0.229708 0.084764
v -0.118138 0.239706 0.036683
v -0.117633 0.252263 -0.010920
v -0.156033 0.255598 0.087897
v -0.153378 0.260717 0.044364
v -0.151025 0.268499 0.001571
v -0.191675 0.280838 0.090905
v -0.188488 0.281095 0.051837
v -0.184234 0.284098 0.013766
v -0.206828 0.193743 -0.033046
v -0.209388 0.179838 0.014047
v -0.213702 0.168436 0.061597
v -0.227056 0.218617 -0.017290
v -0.231525 0.209446 0.024978
v -0.237387 0.202223 0.067716
v -0.246674 0.243132 -0.001723
v -0.253076 0.238720 0.035814
v -0.260486 0.235693 0.073835
v -0.150466 0.310221 -0.251887
v -0.164854 0.303091 -0.261799
v -0.178942 0.291538 -0.258951
v -0.166643 0.325253 -0.205063
v -0.181357 0.317853 -0.214105
v -0.196275 0.305812 -0.212414
v -0.182226 0.339327 -0.158383
v -0.197296 0.331656 -0.166402
v -0.212990 0.319143 -0.166014
v -0.230728 0.177618 0.314566
v -0.212868 0.190680 0.326231
v -0.191885 0.203103 0.324202
v -0.246057 0.207723 0.290619
v -0.228412 0.219907 0.301204
v -0.208867 0.232123 0.299845
v -0.260895 0.237120 0.266279
v -0.243518 0.248487 0.275665
v -0.225388 0.260415 0.275087
vn -0.4051 -0.8625 -0.3033
vn -0.3542 -0.8888 -0.2909
vn -0.3385 -0.8941 -0.2931
vn -0.4017 -0.8652 -0.3002
vn -0.3122 -0.9186 -0.2423
vn -0.2870 -0.9272 -0.2406
vn -0.2801 -0.9498 -0.1393
vn -0.3647 -0.9198 -0.1449
vn -0.2236 -0.9711 -0.0833
vn -0.5948 -0.7590 -0.2647
vn -0.4136 -0.8640 -0.2870
vn -0.5991 -0.7559 -0.2639
vn -0.3701 -0.8885 -0.2714
vn -0.3352 -0.9146 -0.2261
vn -0.0701 -0.9923 -0.1026
vn -0.0412 -0.9931 -0.1102
vn -0.0076 -0.9955 -0.0947
vn 0.0485 -0.9955 0.0819
vn 0.1055 -0.9129 0.3943
vn 0.0140 -0.9260 0.3771
vn -0.0294 -0.9380 0.3455
vn -0.1113 -0.9325 0.3435
vn -0.6080 -0.7932 -0.0352
vn -0.3389 -0.8341 0.4352
vn -0.6178 -0.7517 -0.2307
vn 0.1889 -0.7162 0.6718
vn 0.2148 -0.7162 0.6641
vn 0.2639 -0.6658 0.6979
vn 0.2561 -0.6577 0.7085
vn 0.2316 -0.7119 0.6630
vn 0.2713 -0.6734 0.6877
vn 0.3260 -0.6180 0.7154
vn 0.3299 -0.5933 0.7343
vn 0.3197 -0.6348 0.7035
vn 0.0960 -0.6936 0.7140
vn 0.2872 -0.7856 0.5481
vn 0.3298 -0.7294 0.5994
vn 0.4049 -0.6925 0.5971
vn 0.6899 -0.4283 0.5836
vn 0.7269 -0.2883 0.6233
vn 0.7586 -0.2177 0.6140
vn 0.7651 -0.1309 0.6305
vn 0.3294 -0.5106 0.7942
vn 0.6916 0.0370 0.7213
vn 0.2319 -0.6326 0.7389
vn 0.6697 0.5762 0.4685
vn 0.7139 0.5475 0.4366
vn 0.6938 0.5416 0.4747
vn 0.6320 0.5839 0.5095
vn 0.7958 0.4806 0.3685
vn 0.7959 0.4651 0.3875
vn 0.9131 0.3798 0.1480
vn 0.8756 0.4430 0.1927
vn 0.9479 0.3066 0.0871
vn 0.6970 0.6049 0.3851
vn 0.7331 0.5614 0.3839
vn 0.6249 0.6368 0.4517
vn 0.7603 0.5412 0.3592
vn 0.8189 0.4806 0.3136
vn 0.9617 0.0246 0.2730
vn 0.9539 0.0265 0.2989
vn 0.9620 0.0019 0.2731
vn 0.9905 -0.1179 -0.0705
vn 0.8172 -0.2332 -0.5271
vn 0.8188 -0.1470 -0.5549
vn 0.8307 -0.1191 -0.5438
vn 0.8609 -0.1139 -0.4958
vn 0.8343 0.5302 0.1510
vn 0.8946 -0.1497 -0.4211
vn 0.5785 0.6704 0.4647
vn 0.5222 -0.4357 -0.7331
vn 0.4965 -0.3888 -0.7761
vn 0.4641 -0.4106 -0.7849
vn 0.4873 -0.4625 -0.7407
vn 0.4972 -0.3935 -0.7732
vn 0.4662 -0.4151 -0.7812
vn 0.4357 -0.4377 -0.7865
vn 0.4540 -0.4892 -0.7446
vn 0.4384 -0.4408 -0.7833
vn 0.5889 -0.5565 -0.5861
vn 0.5820 -0.4766 -0.6589
vn 0.5066 -0.5098 -0.6953
vn 0.4463 -0.5786 -0.6827
vn 0.2236 -0.7045 -0.6735
vn 0.1952 -0.6658 -0.7202
vn 0.2052 -0.6478 -0.7336
vn 0.2117 -0.6772 -0.7047
vn 0.4884 -0.6278 -0.6062
vn 0.2067 -0.7516 -0.6264
vn 0.5401 -0.6001 -0.5901
vn -0.7754 -0.6002 -0.1962
vn -0.7936 -0.5960 -0.1224
vn -0.8188 -0.5691 -0.0755
vn -0.8196 -0.5479 -0.1678
vn -0.7653 -0.6356 0.1023
vn -0.7517 -0.6446 0.1394
vn -0.8025 -0.5921 -0.0739
vn -0.8184 -0.5500 -0.1662
vn -0.7156 -0.6882 0.1198
vn -0.7671 -0.6031 -0.2188
vn -0.4544 -0.7256 0.5168
vn -0.4590 -0.7530 0.4715
vn -0.4546 -0.7902 0.4109
vn -0.4828 -0.7901 0.3778
vn -0.7088 -0.6992 0.0936
vn -0.7929 -0.6034 -0.0847
vn -0.8150 -0.5541 -0.1698
vn -0.8191 -0.5383 -0.1985
vn -0.8185 -0.5388 -0.1990
vn -0.8157 -0.5428 -0.1998
vn 0.7599 -0.6205 0.1935
vn 0.5199 -0.8432 0.1367
vn 0.5359 -0.8415 0.0689
vn 0.7676 -0.6263 0.1363
vn 0.2849 -0.9564 0.0647
vn 0.3016 -0.9534 0.0110
vn 0.5744 -0.7554 -0.3155
vn 0.7584 -0.6137 -0.2195
vn 0.3950 -0.8632 -0.3143
vn 0.7582 -0.6242 0.1886
vn 0.5200 -0.8432 0.1365
vn 0.2922 -0.9541 0.0653
vn -0.1502 -0.9852 -0.0822
vn -0.1636 -0.9831 -0.0823
vn -0.1519 -0.9817 -0.1152
vn 0.0142 -0.9283 -0.3715
vn 0.7881 0.4958 0.3649
vn 0.7764 0.5966 0.2033
vn 0.7794 0.5848 0.2250
vn 0.7856 0.4912 0.3763
vn 0.7780 0.6124 0.1403
vn 0.7830 0.5997 0.1648
vn 0.7847 0.5690 0.2459
vn 0.7838 0.4827 0.3908
vn 0.7895 0.5848 0.1864
vn 0.7524 0.1560 0.6400
vn 0.7992 0.4808 0.3606
vn 0.7395 0.2080 0.6402
vn 0.7779 0.6001 0.1864
vn 0.7744 0.6213 0.1192
vn 0.7856 0.6068 0.1209
vn 0.7927 0.5938 0.1378
vn 0.7969 0.5829 0.1585
vn 0.8009 0.5724 0.1760
vn 0.8089 0.5577 0.1861
vn 0.8017 0.5632 0.2003
vn 0.7932 0.5497 0.2620
vn 0.7722 0.4871 0.4081
vn 0.7255 0.2403 0.6450
vn 0.6753 0.3080 0.6701
vn 0.7362 0.2233 0.6388
vn 0.6110 0.6871 0.3931
vn 0.5950 0.7212 0.3547
vn 0.6978 0.6648 0.2667
vn 0.6542 0.6764 0.3384
vn 0.8833 0.4670 0.0409
vn 0.9286 0.3709 0.0151
vn 0.7587 0.6085 0.2327
vn 0.7006 0.6439 0.3076
vn 0.9251 0.3779 0.0364
vn 0.6715 0.6459 0.3632
vn 0.9064 -0.2483 -0.3417
vn 0.9382 -0.2191 -0.2680
vn 0.9695 -0.0731 -0.2339
vn 0.9360 0.2149 -0.2788
vn 0.8713 0.4889 0.0427
vn 0.7728 0.5962 0.2176
vn 0.7397 0.6087 0.2870
vn 0.7097 0.6299 0.3154
vn 0.7491 0.5931 0.2950
vn 0.6819 0.6496 0.3361
vn 0.6532 -0.6223 -0.4314
vn 0.5668 -0.6976 -0.4383
vn 0.5705 -0.7135 -0.4067
vn 0.7126 -0.5905 -0.3789
vn 0.4785 -0.7403 -0.4722
vn 0.4235 -0.7862 -0.4501
vn 0.5633 -0.6685 -0.4855
vn 0.7808 -0.4656 -0.4165
vn 0.3221 -0.7843 -0.5302
vn 0.1957 -0.8156 -0.5445
vn 0.1111 -0.8533 -0.5094
vn -0.0429 -0.8425 -0.5370
vn -0.2798 -0.7086 -0.6478
vn 0.0966 -0.6159 -0.7819
vn 0.4730 -0.4050 -0.7825
vn 0.7883 -0.1071 -0.6059
vn -0.0056 -0.6897 0.7241
vn 0.2156 -0.6146 0.7588
vn 0.2258 -0.6232 0.7487
vn -0.0532 -0.7352 0.6758
vn 0.3732 -0.4216 0.8264
vn 0.4577 -0.3825 0.8026
vn 0.2276 -0.6216 0.7495
vn -0.0864 -0.7646 0.6387
vn 0.5122 -0.3461 0.7861
vn 0.6360 0.1167 0.7628
vn 0.6969 0.1045 0.7095
vn 0.7483 0.1035 0.6552
vn 0.5171 -0.2742 0.8108
vn 0.1976 -0.5850 0.7866
vn -0.1408 -0.7554 0.6399
vn 0.7312 0.5897 0.3428
vn 0.7504 0.6500 0.1202
vn 0.7568 0.6325 0.1648
vn 0.7609 0.5273 0.3783
vn 0.7754 0.6275 0.0709
vn 0.7674 0.6341 0.0950
vn 0.7747 0.6066 0.1785
vn 0.7974 0.4772 0.3694
vn 0.7714 0.6274 0.1065
vn 0.8100 0.5331 0.2441
vn 0.8014 0.5967 0.0425
vn 0.8167 0.5762 0.0311
vn 0.8222 0.5650 0.0688
vn 0.7872 0.6102 0.0894
vn 0.7761 0.6223 0.1020
vn 0.7779 0.6186 0.1103
vn 0.7841 0.6031 0.1467
vn 0.7649 0.6053 0.2201
vn 0.7564 0.6151 0.2227
vn 0.7737 0.6144 0.1545
vn 0.7277 0.6183 0.2971
vn 0.7241 0.6262 0.2891
vn 0.7658 0.6039 0.2211
vn 0.7785 0.6073 0.1589
vn 0.7403 0.6117 0.2789
vn 0.8153 0.5635 0.1334
vn 0.7943 0.5694 0.2118
vn 0.7561 0.5825 0.2983
vn 0.7730 0.5773 0.2631
vn 0.7903 0.5742 0.2139
vn 0.7942 0.5857 0.1616
vn -0.8187 -0.5371 -0.2031
vn -0.8167 -0.5384 -0.2077
vn -0.8176 -0.5374 -0.2068
vn -0.8183 -0.5391 -0.1994
vn -0.8183 -0.5390 -0.1998
vn -0.8184 -0.5387 -0.2001
vn -0.8187 -0.5382 -0.2002
vn -0.8180 -0.5371 -0.2060
vn -0.8184 -0.5366 -0.2059
vn -0.8178 -0.5372 -0.2063
vn 0.8063 0.5674 0.1672
vn 0.8085 0.5514 0.2055
vn 0.8123 0.5467 0.2032
vn 0.8093 0.5598 0.1781
vn 0.7976 0.5518 0.2436
vn 0.8044 0.5484 0.2287
vn 0.8128 0.5463 0.2020
vn 0.8106 0.5548 0.1874
vn 0.8065 0.5501 0.2169
vn 0.7779 0.5669 0.2712
vn 0.7881 0.5633 0.2483
vn 0.7926 0.5655 0.2279
vn 0.7911 0.5749 0.2091
vn 0.8056 0.5552 0.2065
vn 0.8130 0.5468 0.1999
vn 0.8136 0.5488 0.1922
vn 0.5969 -0.7271 0.3392
vn 0.4494 -0.8190 0.3568
vn 0.5131 -0.8428 0.1626
vn 0.6959 -0.6989 0.1653
vn 0.3531 -0.8932 0.2783
vn 0.3633 -0.9275 0.0882
vn 0.5205 -0.8433 0.1338
vn 0.7203 -0.6779 0.1469
vn 0.3491 -0.9351 0.0614
vn 0.9178 -0.2556 0.3038
vn 0.3341 -0.9405 0.0623
vn 0.5204 -0.8433 0.1345
vn 0.7329 -0.6620 0.1566
vn 0.9890 -0.0782 0.1254
vn 0.9871 -0.0439 0.1538
vn 0.9835 -0.1287 0.1271
vn 0.7427 -0.6486 0.1663
vn 0.5203 -0.8432 0.1352
vn 0.5201 -0.8432 0.1358
vn 0.7499 -0.6380 0.1750
vn 0.3210 -0.9449 0.0638
vn 0.3099 -0.9486 0.0650
vn 0.5200 -0.8432 0.1362
vn 0.7550 -0.6299 0.1824
vn 0.3004 -0.9516 0.0654
vn 0.9827 -0.0169 0.1846
vn -0.0953 -0.9910 -0.0942
vn -0.1168 -0.9893 -0.0877
vn -0.1350 -0.9873 -0.0838
vn 0.9696 0.0170 0.2443
vn 0.9766 0.0033 0.2149
vn -0.3366 -0.7940 -0.5062
vn -0.6839 -0.6554 -0.3206
vn -0.6912 -0.6401 -0.3354
vn -0.3592 -0.8012 -0.4787
vn -0.7550 -0.6108 -0.2385
vn -0.7900 -0.5634 -0.2418
vn -0.6992 -0.6360 -0.3265
vn -0.4429 -0.7729 -0.4544
vn -0.7917 -0.5611 -0.2415
vn -0.3274 -0.8068 -0.4917
vn -0.5756 -0.7651 -0.2887
vn -0.6096 -0.7547 -0.2423
vn -0.6133 -0.7541 -0.2350
vn -0.7691 -0.6016 -0.2158
vn -0.8128 -0.5440 -0.2086
vn -0.8160 -0.5393 -0.2081
vn -0.7999 -0.5510 -0.2380
vn -0.7408 -0.5924 -0.3167
vn -0.5833 -0.6690 -0.4607
vn -0.7696 -0.6013 -0.2149
vn -0.7679 -0.6024 -0.2177
vn -0.8149 -0.5423 -0.2043
vn -0.8151 -0.5422 -0.2040
vn -0.7664 -0.6034 -0.2203
vn -0.8148 -0.5425 -0.2045
vn -0.6104 -0.7554 -0.2383
vn -0.6048 -0.7575 -0.2457
vn -0.5986 -0.7592 -0.2554
vn 0.8986 0.4085 0.1602
vn 0.9262 0.3358 0.1716
vn 0.8779 0.4789 -0.0048
vn 0.8566 0.5159 -0.0113
vn 0.9477 0.2268 0.2247
vn 0.9193 0.3915 0.0401
vn 0.8700 0.4928 0.0167
vn 0.8560 0.5170 0.0056
vn 0.9048 0.4223 0.0549
vn 0.8923 0.4408 0.0975
vn 0.8627 0.5011 0.0679
vn 0.8534 0.5182 0.0567
vn 0.8425 0.5241 0.1249
vn 0.8500 0.5103 0.1310
vn 0.8299 0.5205 0.2008
vn 0.8208 0.5338 0.2034
vn 0.8779 0.4556 0.1473
vn 0.8613 0.4671 0.1999
vn 0.8007 0.5312 0.2771
vn 0.7855 0.5464 0.2905
vn 0.8418 0.4756 0.2554
vn -0.2346 -0.8491 -0.4732
vn -0.2202 -0.8596 -0.4611
vn -0.4210 -0.8742 -0.2419
vn -0.4428 -0.8565 -0.2653
vn -0.2303 -0.8777 -0.4202
vn -0.4072 -0.8902 -0.2041
vn -0.4309 -0.8751 -0.2202
vn -0.4585 -0.8560 -0.2388
vn -0.4133 -0.8920 -0.1831
vn -0.4030 -0.8965 -0.1841
vn -0.4239 -0.8784 -0.2206
vn -0.4552 -0.8581 -0.2377
vn -0.4483 -0.8605 -0.2420
vn -0.4146 -0.8818 -0.2247
vn -0.4019 -0.8851 -0.2349
vn -0.4379 -0.8629 -0.2522
vn -0.3906 -0.9012 -0.1880
vn -0.3750 -0.9060 -0.1963
vn -0.3866 -0.8875 -0.2509
vn -0.4256 -0.8644 -0.2679
vn -0.3564 -0.9106 -0.2093
vn -0.8187 -0.5362 -0.2054
vn -0.8191 -0.5376 -0.2002
vn -0.8192 -0.5374 -0.2002
vn -0.8193 -0.5374 -0.2001
vn -0.8193 -0.5374 -0.2000
vn -0.8189 -0.5361 -0.2050
vn -0.8191 -0.5358 -0.2050
vn -0.8188 -0.5362 -0.2051
vn 0.8172 0.5433 0.1925
vn 0.8131 0.5482 0.1957
vn 0.8109 0.5534 0.1903
vn 0.8164 0.5450 0.1908
vn 0.8033 0.5625 0.1957
vn 0.7995 0.5717 0.1843
vn 0.7823 0.5925 0.1921
vn 0.7905 0.5815 0.1924
vn 0.7710 0.6102 0.1821
vn 0.8177 0.5438 0.1890
vn 0.7857 0.5885 0.1906
vn 0.7796 0.6023 0.1718
vn 0.7537 0.6369 0.1621
vn 0.6577 0.7293 0.1888
vn 0.6633 0.7192 0.2070
vn 0.6798 0.7035 0.2075
vn 0.7026 0.6846 0.1943
vn 0.7977 0.5732 0.1875
vn 0.7272 0.6633 0.1766
vn 0.8189 0.5420 0.1888
vn -0.8036 -0.4460 -0.3941
vn -0.8175 -0.5053 -0.2764
vn -0.8206 -0.5051 -0.2674
vn -0.8137 -0.4471 -0.3714
vn -0.8190 -0.5286 -0.2232
vn -0.8197 -0.5286 -0.2207
vn -0.8233 -0.5041 -0.2610
vn -0.8230 -0.4444 -0.3539
vn -0.8203 -0.5283 -0.2191
vn -0.6545 -0.3619 -0.6638
vn -0.7696 -0.4799 -0.4213
vn -0.7316 -0.2920 -0.6160
vn -0.8047 -0.5191 -0.2881
vn -0.8155 -0.5324 -0.2268
vn -0.8234 -0.5238 -0.2183
vn -0.8366 -0.4844 -0.2556
vn -0.8596 -0.3861 -0.3346
vn -0.7895 -0.2895 -0.5412
vn -0.8604 -0.1604 -0.4837
vn -0.7621 -0.2960 -0.5758
vn -0.6995 -0.5569 -0.4479
vn -0.7789 -0.5490 -0.3031
vn -0.7873 -0.5411 -0.2956
vn -0.7243 -0.5350 -0.4349
vn -0.8087 -0.5404 -0.2324
vn -0.8108 -0.5385 -0.2294
vn -0.7920 -0.5363 -0.2917
vn -0.7366 -0.5229 -0.4289
vn -0.8121 -0.5372 -0.2279
vn -0.4990 -0.5224 -0.6914
vn -0.5839 -0.4517 -0.6746
vn -0.5566 -0.4769 -0.6802
vn 0.7632 0.5887 0.2665
vn 0.7688 0.6053 0.2063
vn 0.7726 0.6072 0.1854
vn 0.7735 0.5857 0.2422
vn 0.8010 0.5966 0.0505
vn 0.7881 0.6143 0.0386
vn 0.7737 0.6131 0.1596
vn 0.7786 0.5888 0.2171
vn 0.7791 0.6267 0.0156
vn 0.8185 0.5008 -0.2815
vn 0.7808 0.5604 -0.2761
vn 0.7560 0.5879 -0.2878
vn 0.6711 0.6819 -0.2909
vn 0.7337 0.6795 -0.0066
vn 0.7544 0.6429 0.1327
vn 0.7724 0.6053 0.1921
vn -0.8135 -0.5554 -0.1727
vn -0.7918 -0.6034 -0.0948
vn -0.7939 -0.5991 -0.1036
vn -0.8137 -0.5541 -0.1756
vn -0.7187 -0.6916 0.0722
vn -0.7282 -0.6832 0.0544
vn -0.7987 -0.5917 -0.1095
vn -0.8147 -0.5520 -0.1776
vn -0.7437 -0.6671 0.0432
vn -0.5205 -0.7765 0.3551
vn -0.5445 -0.7697 0.3334
vn -0.5817 -0.7464 0.3234
vn -0.6762 -0.6515 0.3440
vn -0.7857 -0.6168 0.0474
vn -0.8131 -0.5720 -0.1085
vn -0.8181 -0.5470 -0.1773
vn 0.6667 0.2513 -0.7017
vn 0.3005 -0.0845 -0.9500
vn 0.2326 0.0220 -0.9723
vn 0.6156 0.3576 -0.7022
vn -0.1386 -0.3690 -0.9190
vn -0.2184 -0.2938 -0.9306
vn 0.1931 0.0823 -0.9777
vn 0.5813 0.4095 -0.7031
vn -0.2597 -0.2500 -0.9328
vn -0.3710 -0.1022 -0.9230
vn 0.0678 0.2621 -0.9627
vn 0.4657 0.5606 -0.6847
vn -0.1909 -0.7411 0.6436
vn 0.1677 -0.5526 0.8164
vn 0.1580 -0.5429 0.8248
vn -0.2184 -0.7402 0.6360
vn 0.5079 -0.2149 0.8342
vn 0.5107 -0.1902 0.8385
vn 0.1243 -0.5055 0.8538
vn -0.2692 -0.7143 0.6460
vn 0.4956 -0.1469 0.8560
vn 0.4043 -0.0045 0.9146
vn -0.0083 -0.3434 0.9392
vn -0.4107 -0.5782 0.7050
vn 0.6497 0.6789 0.3419
vn 0.7025 0.6825 0.2015
vn 0.6962 0.6990 0.1634
vn 0.6354 0.7011 0.3235
vn 0.6918 0.7076 0.1436
vn 0.6817 0.7254 0.0951
vn 0.6558 0.7454 0.1196
vn 0.5993 0.7435 0.2967
vn 0.6412 0.7663 0.0394
vn 0.5244 0.5762 0.6269
vn 0.6994 0.6092 0.3738
vn 0.4363 0.6829 0.5859
vn 0.7460 0.6222 0.2372
vn 0.7457 0.6412 0.1811
vn 0.6563 0.7411 0.1418
vn 0.6396 0.7639 0.0853
vn 0.5986 0.8008 0.0167
vn 0.2449 0.9686 -0.0424
vn 0.2531 0.9673 0.0158
vn 0.2438 0.9639 0.1070
vn 0.1922 0.9414 0.2771
vn 0.3107 0.7443 0.5911
vn 0.1173 0.8523 0.5097
vn 0.3857 0.7143 0.5839
vn -0.8253 -0.5366 -0.1758
vn -0.8453 -0.5235 -0.1065
vn -0.8519 -0.5150 -0.0951
vn -0.8287 -0.5325 -0.1727
vn -0.8849 -0.4639 0.0427
vn -0.8962 -0.4380 0.0714
vn -0.8929 -0.4438 -0.0754
vn -0.8667 -0.4709 -0.1647
vn -0.9251 -0.3654 0.1033
vn -0.8245 -0.5373 -0.1775
vn -0.8193 -0.5374 -0.1998
vn -0.8401 -0.5309 -0.1114
vn -0.8662 -0.4985 0.0344
vn -0.8641 -0.3881 0.3206
vn -0.9045 -0.2852 0.3172
vn -0.9089 -0.2206 0.3539
vn -0.9057 -0.1259 0.4047
vn -0.9171 0.1271 0.3779
vn -0.9813 0.1055 0.1608
vn -0.9981 0.0617 -0.0085
vn -0.9931 0.0325 -0.1128
vn -0.8551 -0.4793 -0.1975
vn -0.9826 0.0110 -0.1854
vn -0.8216 -0.5341 -0.1993
vn 0.5956 0.7752 0.2104
vn 0.6444 0.7503 0.1473
vn 0.6851 0.6912 0.2301
vn 0.6003 0.7478 0.2836
vn 0.6264 0.7786 0.0375
vn 0.6826 0.7232 0.1050
vn 0.6979 0.6271 0.3461
vn 0.5855 0.7184 0.3757
vn 0.7237 0.6569 0.2116
vn 0.6621 0.7341 0.1508
vn 0.5480 0.8033 0.2333
vn 0.6611 0.7449 0.0892
vn 0.6234 0.7819 -0.0118
vn 0.4869 0.8529 -0.1882
vn 0.4411 0.8874 -0.1341
vn 0.4556 0.8848 -0.0980
vn 0.4455 0.8941 -0.0461
vn 0.3028 0.9423 0.1427
vn 0.3259 0.8561 0.4011
vn 0.2878 0.8163 0.5009
vn 0.1838 0.8841 0.4296
vn 0.4791 0.8242 0.3020
vn 0.1163 0.9590 0.2584
vn 0.5190 0.8115 0.2684
vn 0.3488 0.7064 -0.6159
vn -0.0664 0.4329 -0.8990
vn -0.1108 0.4818 -0.8693
vn 0.3261 0.7514 -0.5737
vn -0.4954 0.0248 -0.8683
vn -0.5521 0.0363 -0.8330
vn -0.1552 0.5235 -0.8378
vn 0.3075 0.7835 -0.5399
vn -0.6050 0.0572 -0.7941
vn 0.5833 0.7709 -0.2558
vn -0.7083 0.2255 -0.6689
vn -0.2869 0.6592 -0.6951
vn 0.1864 0.8728 -0.4511
vn 0.5487 0.8065 -0.2204
vn 0.5610 0.7940 -0.2342
vn -0.5528 -0.4105 0.7252
vn -0.1452 -0.1484 0.9782
vn -0.1899 -0.0779 0.9787
vn -0.6010 -0.3529 0.7171
vn 0.3101 0.1673 0.9359
vn 0.2849 0.2295 0.9307
vn -0.2231 -0.0235 0.9745
vn -0.6298 -0.3115 0.7115
vn 0.2594 0.2791 0.9246
vn -0.7731 -0.5352 0.3403
vn 0.6267 0.4018 0.6677
vn 0.6162 0.4350 0.6565
vn 0.5999 0.4680 0.6490
vn 0.1489 0.4386 0.8862
vn -0.3327 0.1639 0.9287
vn -0.7095 -0.1523 0.6880
vn -0.8188 -0.4752 0.3221
vn -0.8035 -0.4975 0.3270
vn 0.7601 0.6273 0.1694
vn 0.7273 0.6769 0.1132
vn 0.7128 0.6953 0.0914
vn 0.7505 0.6446 0.1456
vn 0.6811 0.7321 -0.0098
vn 0.6612 0.7500 -0.0178
vn 0.6970 0.7132 0.0747
vn 0.7293 0.6718 0.1295
vn 0.6488 0.7605 -0.0257
vn -0.8223 -0.5404 -0.1781
vn -0.8294 -0.5475 -0.1110
vn -0.8341 -0.5397 -0.1136
vn -0.8236 -0.5384 -0.1787
vn -0.8303 -0.5558 0.0414
vn -0.8434 -0.5363 0.0338
vn -0.8357 -0.5373 -0.1136
vn -0.8239 -0.5380 -0.1784
vn -0.8488 -0.5278 0.0317
vn 0.7605 0.5068 0.4059
vn 0.8009 0.5374 0.2640
vn 0.8029 0.5353 0.2622
vn 0.7583 0.5152 0.3995
vn 0.8139 0.5441 0.2037
vn 0.8167 0.5401 0.2034
vn 0.7903 0.5559 0.2576
vn 0.7463 0.5369 0.3933
vn 0.8005 0.5651 0.1997
vn -0.7502 0.6486 0.1283
vn -0.5728 0.7931 0.2071
vn -0.5743 0.7549 0.3166
vn -0.7470 0.6280 0.2182
vn -0.3803 0.8775 0.2922
vn -0.3603 0.8378 0.4101
vn -0.5737 0.7789 0.2534
vn -0.7329 0.6581 0.1723
vn -0.3429 0.8685 0.3579
vn -0.9905 0.0314 -0.1340
vn -0.7468 0.6649 -0.0146
vn -0.9961 0.0535 -0.0698
vn -0.5570 0.8292 0.0466
vn -0.3743 0.9203 0.1136
vn -0.2342 0.9722 0.0073
vn -0.5232 0.8478 -0.0870
vn -0.7155 0.6851 -0.1368
vn -0.9691 0.2230 -0.1054
vn -0.9000 0.3655 -0.2376
vn -0.9934 0.1019 -0.0522
vn -0.7291 0.6425 0.2360
vn -0.5746 0.7749 0.2633
vn -0.5646 0.8174 0.1147
vn -0.7446 0.6618 0.0870
vn -0.3873 0.8841 0.2615
vn -0.3569 0.9275 0.1112
vn -0.5531 0.8327 0.0274
vn -0.7545 0.6562 -0.0104
vn -0.3269 0.9448 0.0224
vn -0.7311 0.4558 0.5076
vn -0.5473 0.6230 0.5589
vn -0.3094 0.7605 0.5708
vn -0.3012 0.9512 -0.0670
vn -0.5348 0.8419 -0.0724
vn -0.7533 0.6483 -0.1103
vn -0.7442 0.6421 -0.1838
vn -0.5172 0.8429 -0.1485
vn -0.5147 0.8425 -0.1590
vn -0.7373 0.6463 -0.1968
vn -0.2905 0.9482 -0.1282
vn -0.3052 0.9441 -0.1243
vn -0.5309 0.8423 -0.0934
vn -0.7384 0.6597 -0.1398
vn -0.3399 0.9394 -0.0439
vn -0.9739 -0.0035 -0.2268
vn 0.2173 0.9741 -0.0622
vn 0.1686 0.9854 -0.0249
vn 0.1207 0.9893 0.0819
vn -0.9795 0.0155 -0.2010
vn -0.9726 -0.0006 -0.2327
vn -0.8968 -0.3064 -0.3192
vn -0.8525 -0.4571 -0.2537
vn -0.8648 -0.4294 -0.2602
vn -0.9137 -0.2415 -0.3269
vn -0.8272 -0.5176 -0.2186
vn -0.8330 -0.5073 -0.2207
vn -0.9075 -0.3405 -0.2461
vn -0.9360 -0.1547 -0.3163
vn -0.8778 -0.4315 -0.2079
vn -0.9090 -0.0011 -0.4167
vn -0.8195 -0.5352 -0.2051
vn -0.8224 -0.5307 -0.2049
vn -0.8623 -0.4662 -0.1977
vn -0.8957 0.2130 -0.3902
vn -0.9088 0.1080 -0.4031
vn 0.6108 0.7734 0.1694
vn 0.5668 0.7990 0.2008
vn 0.5301 0.8337 0.1547
vn 0.5852 0.8033 0.1106
vn 0.5392 0.8115 0.2252
vn 0.4968 0.8416 0.2120
vn 0.4808 0.8726 0.0857
vn 0.5413 0.8402 0.0332
vn 0.4451 0.8772 0.1801
vn -0.8208 -0.5340 -0.2028
vn -0.8210 -0.5337 -0.2026
vn -0.8208 -0.5340 -0.2029
vn -0.8523 -0.4814 -0.2045
vn -0.8558 -0.4764 -0.2017
vn -0.8519 -0.4823 -0.2041
vn 0.0642 0.9415 -0.3307
vn -0.3993 0.7840 -0.4753
vn -0.4267 0.8130 -0.3963
vn 0.0124 0.9564 -0.2918
vn -0.7644 0.4130 -0.4952
vn -0.7437 0.5110 -0.4311
vn -0.4435 0.8270 -0.3455
vn -0.0493 0.9653 -0.2564
vn -0.7106 0.5856 -0.3901
vn -0.7733 0.0251 0.6336
vn -0.4365 0.3565 0.8260
vn -0.4657 0.4184 0.7798
vn -0.7668 0.1130 0.6318
vn 0.0246 0.5943 0.8039
vn -0.0479 0.6297 0.7754
vn -0.4844 0.4620 0.7429
vn -0.7378 0.2082 0.6421
vn -0.1350 0.6411 0.7555
vt 0.771900 0.069414
vt 0.770223 0.072612
vt 0.768696 0.071946
vt 0.769813 0.068597
vt 0.768541 0.075805
vt 0.767578 0.075299
vt 0.767132 0.071320
vt 0.767702 0.067824
vt 0.766600 0.074820
vt 0.775903 0.067432
vt 0.773890 0.070243
vt 0.773389 0.066441
vt 0.771679 0.073283
vt 0.769467 0.076315
vt 0.767613 0.078889
vt 0.767104 0.078514
vt 0.766586 0.078142
vt 0.766066 0.077750
vt 0.765592 0.077227
vt 0.765611 0.074672
vt 0.765632 0.071130
vt 0.765709 0.067510
vt 0.768205 0.064634
vt 0.765832 0.064109
vt 0.770780 0.065494
vt 0.012992 0.332205
vt 0.011703 0.335408
vt 0.008735 0.335421
vt 0.009320 0.332221
vt 0.010397 0.338532
vt 0.008152 0.338540
vt 0.005774 0.335476
vt 0.005658 0.332290
vt 0.005916 0.338584
vt 0.017240 0.329205
vt 0.015959 0.332419
vt 0.013894 0.328894
vt 0.014092 0.335584
vt 0.012198 0.338653
vt 0.010717 0.340791
vt 0.009353 0.341024
vt 0.007701 0.341060
vt 0.006066 0.341077
vt 0.004836 0.340880
vt 0.004173 0.338748
vt 0.003481 0.335700
vt 0.002832 0.332562
vt 0.005704 0.328982
vt 0.002551 0.329354
vt 0.009785 0.328872
vt 0.582136 0.889544
vt 0.578133 0.887687
vt 0.579121 0.887113
vt 0.583439 0.888827
vt 0.574211 0.885834
vt 0.574899 0.885386
vt 0.580054 0.886568
vt 0.584646 0.888155
vt 0.575555 0.884963
vt 0.584384 0.892164
vt 0.580751 0.890282
vt 0.586188 0.891193
vt 0.577091 0.888282
vt 0.573494 0.886300
vt 0.570610 0.884718
vt 0.571061 0.884343
vt 0.571505 0.883973
vt 0.571987 0.883632
vt 0.572789 0.883466
vt 0.576063 0.884490
vt 0.580739 0.886030
vt 0.585540 0.887566
vt 0.589365 0.889335
vt 0.590541 0.888632
vt 0.587867 0.890231
vt 0.005636 0.117656
vt 0.005767 0.112435
vt 0.008759 0.112476
vt 0.009345 0.117709
vt 0.005904 0.107353
vt 0.008176 0.107370
vt 0.011758 0.112487
vt 0.013067 0.117711
vt 0.010456 0.107394
vt 0.002551 0.122742
vt 0.002815 0.117402
vt 0.005670 0.123183
vt 0.003472 0.112257
vt 0.004148 0.107267
vt 0.004773 0.103805
vt 0.006014 0.103310
vt 0.007716 0.103267
vt 0.009435 0.103341
vt 0.010821 0.103860
vt 0.012268 0.107339
vt 0.014143 0.112347
vt 0.016022 0.117497
vt 0.013985 0.123235
vt 0.017307 0.122834
vt 0.009814 0.123283
vt 0.774512 0.063849
vt 0.771455 0.062649
vt 0.772029 0.059743
vt 0.775531 0.061281
vt 0.768509 0.061588
vt 0.768720 0.058334
vt 0.772575 0.056733
vt 0.776536 0.058635
vt 0.768888 0.054947
vt 0.777507 0.065080
vt 0.765837 0.060718
vt 0.765736 0.057145
vt 0.765612 0.053473
vt 0.765592 0.049200
vt 0.769092 0.050915
vt 0.773111 0.053024
vt 0.777491 0.055265
vt 0.780479 0.060458
vt 0.781896 0.057395
vt 0.778999 0.062801
vt 0.006223 0.346136
vt 0.007661 0.346060
vt 0.007673 0.346545
vt 0.006253 0.346623
vt 0.009130 0.346066
vt 0.009126 0.346556
vt 0.007697 0.347070
vt 0.006271 0.347136
vt 0.009152 0.347075
vt 0.004736 0.346032
vt 0.006198 0.345641
vt 0.004743 0.346626
vt 0.007649 0.345571
vt 0.009131 0.345571
vt 0.010955 0.345881
vt 0.010956 0.346466
vt 0.010947 0.347046
vt 0.010947 0.347653
vt 0.011098 0.348473
vt 0.009611 0.348299
vt 0.007872 0.348413
vt 0.006148 0.348433
vt 0.004782 0.347841
vt 0.004775 0.348710
vt 0.004760 0.347218
vt 0.568940 0.918272
vt 0.573063 0.916110
vt 0.573478 0.922383
vt 0.569228 0.924618
vt 0.577775 0.913761
vt 0.578415 0.919874
vt 0.573921 0.928658
vt 0.569557 0.930965
vt 0.579073 0.925990
vt 0.565476 0.914254
vt 0.568685 0.912552
vt 0.565616 0.920055
vt 0.572619 0.910512
vt 0.577061 0.908362
vt 0.581581 0.906335
vt 0.582694 0.911443
vt 0.583718 0.917265
vt 0.584751 0.923095
vt 0.585984 0.928304
vt 0.580074 0.931439
vt 0.574805 0.934285
vt 0.570394 0.936714
vt 0.566111 0.932802
vt 0.566940 0.938644
vt 0.565837 0.926426
vt 0.590393 0.892315
vt 0.592748 0.890835
vt 0.597955 0.891145
vt 0.594715 0.893250
vt 0.594909 0.889496
vt 0.600886 0.889257
vt 0.603160 0.891549
vt 0.599061 0.894242
vt 0.606867 0.889083
vt 0.587924 0.893751
vt 0.596632 0.888273
vt 0.603227 0.887503
vt 0.609824 0.886900
vt 0.615844 0.887287
vt 0.612361 0.889765
vt 0.608056 0.892713
vt 0.603274 0.895879
vt 0.594969 0.896750
vt 0.598486 0.898811
vt 0.591443 0.895230
vt 0.006187 0.129876
vt 0.009944 0.130167
vt 0.009945 0.137578
vt 0.006656 0.137101
vt 0.013778 0.129922
vt 0.013346 0.137138
vt 0.009940 0.144715
vt 0.006972 0.144160
vt 0.013025 0.144202
vt 0.003416 0.128913
vt 0.016849 0.128995
vt 0.016255 0.135694
vt 0.015950 0.142471
vt 0.015806 0.148589
vt 0.012701 0.150023
vt 0.009991 0.150432
vt 0.007416 0.149946
vt 0.004427 0.142391
vt 0.004652 0.148458
vt 0.004106 0.135624
vt 0.013736 0.325244
vt 0.009918 0.325115
vt 0.009926 0.321180
vt 0.013379 0.321407
vt 0.006172 0.325315
vt 0.006582 0.321461
vt 0.009921 0.317173
vt 0.013180 0.317476
vt 0.006792 0.317525
vt 0.016963 0.325753
vt 0.003219 0.325863
vt 0.003724 0.322230
vt 0.003923 0.318502
vt 0.004018 0.314172
vt 0.006953 0.313106
vt 0.009982 0.312714
vt 0.013150 0.313044
vt 0.016384 0.318421
vt 0.016408 0.314096
vt 0.016553 0.322141
vt 0.568017 0.901842
vt 0.570992 0.900781
vt 0.571583 0.903745
vt 0.568330 0.905149
vt 0.574174 0.899619
vt 0.575173 0.902251
vt 0.572123 0.906787
vt 0.568523 0.908541
vt 0.576154 0.904947
vt 0.565476 0.899346
vt 0.567658 0.898695
vt 0.565616 0.902799
vt 0.570357 0.897872
vt 0.573108 0.896975
vt 0.575741 0.896037
vt 0.577297 0.898443
vt 0.578768 0.900797
vt 0.580220 0.903209
vt 0.565555 0.910022
vt 0.565649 0.906376
vt 0.580190 0.897312
vt 0.582876 0.896196
vt 0.585241 0.898225
vt 0.582106 0.899487
vt 0.585430 0.895032
vt 0.588309 0.896859
vt 0.587592 0.900297
vt 0.584003 0.901711
vt 0.591182 0.898725
vt 0.578170 0.895077
vt 0.580401 0.894107
vt 0.582463 0.893135
vt 0.594070 0.901118
vt 0.589925 0.902951
vt 0.585835 0.904594
vt 0.797160 0.059211
vt 0.792477 0.056822
vt 0.794904 0.052040
vt 0.800238 0.054930
vt 0.787842 0.054605
vt 0.789598 0.049292
vt 0.797317 0.047226
vt 0.803288 0.050605
vt 0.791357 0.043955
vt 0.798416 0.065373
vt 0.794119 0.062953
vt 0.802005 0.061994
vt 0.790063 0.061005
vt 0.786053 0.059246
vt 0.783134 0.052346
vt 0.784315 0.046570
vt 0.785516 0.040779
vt 0.786907 0.035610
vt 0.793113 0.039109
vt 0.799514 0.042718
vt 0.805924 0.046385
vt 0.809165 0.054098
vt 0.812159 0.050056
vt 0.805607 0.058075
vt 0.587495 0.909313
vt 0.592221 0.907233
vt 0.594503 0.912110
vt 0.589097 0.914697
vt 0.597002 0.904984
vt 0.599948 0.909387
vt 0.596766 0.917011
vt 0.590695 0.920097
vt 0.602857 0.913825
vt 0.601971 0.902348
vt 0.605441 0.906416
vt 0.608860 0.910529
vt 0.611713 0.914679
vt 0.605354 0.918137
vt 0.598820 0.921597
vt 0.592299 0.925003
vt 0.006113 0.342067
vt 0.007585 0.342073
vt 0.007584 0.342604
vt 0.006118 0.342602
vt 0.009079 0.342009
vt 0.009076 0.342545
vt 0.007594 0.343099
vt 0.006123 0.343109
vt 0.009091 0.343050
vt 0.004742 0.341604
vt 0.010729 0.341507
vt 0.010782 0.342165
vt 0.010832 0.342804
vt 0.010874 0.343437
vt 0.009104 0.343557
vt 0.007604 0.343595
vt 0.006132 0.343618
vt 0.004722 0.342920
vt 0.004723 0.343560
vt 0.004725 0.342272
vt 0.006144 0.344127
vt 0.007614 0.344091
vt 0.007625 0.344586
vt 0.006159 0.344635
vt 0.009115 0.344063
vt 0.009123 0.344568
vt 0.007637 0.345080
vt 0.006177 0.345140
vt 0.009128 0.345071
vt 0.004724 0.344192
vt 0.010906 0.344062
vt 0.010930 0.344678
vt 0.010947 0.345285
vt 0.004731 0.345428
vt 0.004727 0.344815
vt 0.794514 0.074294
vt 0.792464 0.072829
vt 0.797578 0.072796
vt 0.800381 0.074949
vt 0.790192 0.071362
vt 0.794478 0.070625
vt 0.802739 0.072674
vt 0.806313 0.075436
vt 0.798800 0.069846
vt 0.790125 0.075365
vt 0.789042 0.074119
vt 0.796075 0.076098
vt 0.787594 0.073254
vt 0.785994 0.072365
vt 0.784266 0.071435
vt 0.787809 0.069950
vt 0.791323 0.068625
vt 0.794858 0.067269
vt 0.803040 0.068424
vt 0.807656 0.071767
vt 0.811834 0.075003
vt 0.809152 0.078131
vt 0.815240 0.077942
vt 0.802560 0.077254
vt 0.785391 0.068655
vt 0.782909 0.067447
vt 0.785291 0.065525
vt 0.788282 0.066955
vt 0.780300 0.066273
vt 0.782236 0.064188
vt 0.787671 0.063558
vt 0.791179 0.065219
vt 0.784162 0.062048
vt 0.782408 0.070462
vt 0.780407 0.069460
vt 0.778244 0.068445
vt 0.567481 0.895735
vt 0.567376 0.892743
vt 0.568982 0.892142
vt 0.569683 0.895014
vt 0.567296 0.889800
vt 0.568274 0.889318
vt 0.570567 0.891515
vt 0.571877 0.894258
vt 0.569254 0.888819
vt 0.565668 0.896213
vt 0.566025 0.893101
vt 0.566408 0.890075
vt 0.566686 0.887922
vt 0.567173 0.887401
vt 0.567687 0.887004
vt 0.568201 0.886627
vt 0.568705 0.886246
vt 0.570198 0.888314
vt 0.572070 0.890874
vt 0.573953 0.893480
vt 0.575872 0.892675
vt 0.573471 0.890218
vt 0.574770 0.889557
vt 0.577636 0.891860
vt 0.571093 0.887803
vt 0.571939 0.887291
vt 0.575974 0.888907
vt 0.579258 0.891057
vt 0.572738 0.886788
vt 0.569198 0.885864
vt 0.569679 0.885480
vt 0.570149 0.885097
vt 0.784169 0.075562
vt 0.779390 0.077616
vt 0.778519 0.077079
vt 0.783039 0.074924
vt 0.774696 0.079676
vt 0.774067 0.079241
vt 0.777579 0.076531
vt 0.781810 0.074265
vt 0.773403 0.078798
vt 0.784970 0.076573
vt 0.779989 0.078450
vt 0.775136 0.080312
vt 0.771710 0.081613
vt 0.770924 0.081450
vt 0.770441 0.081115
vt 0.769994 0.080754
vt 0.769539 0.080388
vt 0.772706 0.078335
vt 0.776574 0.075946
vt 0.780484 0.073550
vt 0.779037 0.072770
vt 0.775487 0.075314
vt 0.774310 0.074648
vt 0.777459 0.071942
vt 0.771966 0.077848
vt 0.771181 0.077343
vt 0.773042 0.073966
vt 0.775744 0.071092
vt 0.770348 0.076829
vt 0.769074 0.080017
vt 0.768598 0.079641
vt 0.768111 0.079265
vt 0.807407 0.042470
vt 0.801105 0.039064
vt 0.802478 0.035718
vt 0.808472 0.038663
vt 0.794848 0.035629
vt 0.796577 0.032643
vt 0.803831 0.032390
vt 0.809494 0.034867
vt 0.798311 0.029684
vt 0.813583 0.045839
vt 0.788807 0.032170
vt 0.790892 0.029354
vt 0.793003 0.026576
vt 0.795219 0.023607
vt 0.800105 0.026546
vt 0.805184 0.028973
vt 0.810435 0.031103
vt 0.815225 0.037283
vt 0.815831 0.033150
vt 0.814438 0.041559
vt 0.593923 0.928539
vt 0.600294 0.925305
vt 0.601559 0.928697
vt 0.595554 0.931582
vt 0.606708 0.922103
vt 0.607650 0.925945
vt 0.602807 0.932072
vt 0.597191 0.934602
vt 0.608552 0.929774
vt 0.587773 0.931799
vt 0.612994 0.918942
vt 0.613710 0.923249
vt 0.614366 0.927549
vt 0.614876 0.931724
vt 0.609399 0.933588
vt 0.604070 0.935554
vt 0.598894 0.937818
vt 0.591775 0.937526
vt 0.593891 0.940581
vt 0.589762 0.934679
vt 0.829269 0.054842
vt 0.824759 0.052194
vt 0.825552 0.047161
vt 0.830137 0.049539
vt 0.819450 0.049133
vt 0.820223 0.044440
vt 0.826238 0.042124
vt 0.830878 0.044226
vt 0.820909 0.039746
vt 0.831242 0.062163
vt 0.827740 0.059863
vt 0.832824 0.056927
vt 0.823293 0.056980
vt 0.818027 0.053647
vt 0.821288 0.035258
vt 0.826486 0.037314
vt 0.831052 0.039141
vt 0.834542 0.045878
vt 0.834679 0.040561
vt 0.833752 0.051407
vt 0.816306 0.072076
vt 0.811934 0.068762
vt 0.815996 0.064984
vt 0.820410 0.068182
vt 0.807038 0.065280
vt 0.810956 0.061513
vt 0.819979 0.061104
vt 0.824408 0.064154
vt 0.814813 0.057671
vt 0.819870 0.074954
vt 0.827930 0.066660
vt 0.823964 0.070880
vt 0.607156 0.899221
vt 0.612199 0.895939
vt 0.616092 0.899906
vt 0.610926 0.903164
vt 0.616683 0.892907
vt 0.620606 0.896980
vt 0.619907 0.903950
vt 0.614632 0.907162
vt 0.624430 0.901160
vt 0.620317 0.890443
vt 0.624240 0.894650
vt 0.628048 0.898986
vt 0.631219 0.903569
vt 0.627596 0.905561
vt 0.623055 0.908192
vt 0.617692 0.911301
vt 0.778313 0.049900
vt 0.773656 0.047428
vt 0.774221 0.041153
vt 0.779102 0.043809
vt 0.769474 0.045166
vt 0.769940 0.038803
vt 0.774842 0.034885
vt 0.779930 0.037712
vt 0.770480 0.032452
vt 0.765911 0.043362
vt 0.766373 0.036960
vt 0.766925 0.030560
vt 0.768020 0.024718
vt 0.771517 0.026731
vt 0.775895 0.029285
vt 0.781092 0.032290
vt 0.007503 0.154775
vt 0.010194 0.155085
vt 0.010530 0.160462
vt 0.007725 0.160292
vt 0.013016 0.154902
vt 0.013407 0.160386
vt 0.010875 0.166055
vt 0.008245 0.165967
vt 0.013548 0.166078
vt 0.004271 0.153968
vt 0.016469 0.154101
vt 0.016916 0.159996
vt 0.016933 0.165983
vt 0.016682 0.171715
vt 0.013614 0.171398
vt 0.011250 0.171237
vt 0.008892 0.171253
vt 0.005008 0.165888
vt 0.005784 0.171595
vt 0.004370 0.159931
vt 0.013331 0.307167
vt 0.010236 0.306862
vt 0.010565 0.300450
vt 0.013523 0.300731
vt 0.007259 0.307240
vt 0.007692 0.300799
vt 0.010891 0.294169
vt 0.013626 0.294398
vt 0.008211 0.294454
vt 0.016589 0.308185
vt 0.004257 0.308256
vt 0.004682 0.301749
vt 0.005225 0.295243
vt 0.005710 0.289239
vt 0.008684 0.288826
vt 0.011123 0.288662
vt 0.013614 0.288774
vt 0.016722 0.295193
vt 0.016650 0.289201
vt 0.016714 0.301688
vt 0.584654 0.953517
vt 0.588011 0.950494
vt 0.591370 0.953435
vt 0.588296 0.955850
vt 0.591987 0.947301
vt 0.594996 0.950822
vt 0.594672 0.956336
vt 0.591882 0.958107
vt 0.597951 0.954314
vt 0.578405 0.953903
vt 0.581208 0.950968
vt 0.582075 0.956128
vt 0.584826 0.947535
vt 0.589126 0.943933
vt 0.596342 0.944269
vt 0.598917 0.948212
vt 0.601444 0.952121
vt 0.603567 0.955302
vt 0.600409 0.957171
vt 0.597365 0.958755
vt 0.594676 0.960045
vt 0.589768 0.959657
vt 0.592566 0.960808
vt 0.585950 0.957949
vt 0.793540 0.016852
vt 0.789692 0.013436
vt 0.793164 0.010698
vt 0.796631 0.013552
vt 0.786376 0.010227
vt 0.790136 0.008083
vt 0.796574 0.008018
vt 0.799671 0.010297
vt 0.793826 0.006025
vt 0.790584 0.020056
vt 0.797725 0.020113
vt 0.786378 0.016250
vt 0.782793 0.012639
vt 0.779953 0.009588
vt 0.783731 0.007493
vt 0.787693 0.005826
vt 0.791590 0.004263
vt 0.794417 0.003210
vt 0.796614 0.004215
vt 0.799248 0.005781
vt 0.802092 0.007658
vt 0.802900 0.012779
vt 0.804950 0.009851
vt 0.800333 0.016425
vt 0.619999 0.933864
vt 0.624798 0.932192
vt 0.623396 0.936219
vt 0.619275 0.937779
vt 0.629063 0.930795
vt 0.627061 0.935010
vt 0.622000 0.940171
vt 0.618526 0.941624
vt 0.625094 0.939141
vt 0.620438 0.929815
vt 0.615016 0.935663
vt 0.625767 0.927968
vt 0.630506 0.926366
vt 0.634356 0.925193
vt 0.632522 0.929816
vt 0.630014 0.934206
vt 0.627541 0.938499
vt 0.625752 0.941515
vt 0.623699 0.942419
vt 0.620941 0.943377
vt 0.617957 0.944783
vt 0.615009 0.943427
vt 0.615059 0.946609
vt 0.615022 0.939575
vt 0.009308 0.176519
vt 0.011659 0.176366
vt 0.012115 0.181926
vt 0.009864 0.182134
vt 0.013967 0.176619
vt 0.014299 0.182212
vt 0.012565 0.187448
vt 0.010540 0.187690
vt 0.014467 0.187756
vt 0.006306 0.177224
vt 0.016917 0.177273
vt 0.017152 0.182979
vt 0.017095 0.188652
vt 0.016671 0.193925
vt 0.014443 0.192696
vt 0.012810 0.192315
vt 0.011074 0.192688
vt 0.007733 0.188643
vt 0.008623 0.193941
vt 0.006901 0.182965
vt 0.013771 0.283950
vt 0.011218 0.283928
vt 0.011213 0.278995
vt 0.013886 0.279012
vt 0.008668 0.283964
vt 0.008567 0.279014
vt 0.011204 0.274075
vt 0.013826 0.274070
vt 0.008634 0.274083
vt 0.016966 0.284075
vt 0.005522 0.284076
vt 0.005397 0.279054
vt 0.005449 0.274077
vt 0.005719 0.269270
vt 0.008857 0.269609
vt 0.011263 0.269699
vt 0.013680 0.269546
vt 0.017084 0.274063
vt 0.016901 0.269213
vt 0.017115 0.279059
vt 0.618962 0.915861
vt 0.624367 0.913022
vt 0.625028 0.918078
vt 0.619592 0.920577
vt 0.628989 0.910620
vt 0.629754 0.915944
vt 0.625600 0.923137
vt 0.620147 0.925292
vt 0.630409 0.921278
vt 0.632705 0.908834
vt 0.633571 0.914366
vt 0.634307 0.919901
vt 0.783162 0.028728
vt 0.778124 0.025490
vt 0.780784 0.022345
vt 0.785562 0.025836
vt 0.773879 0.022661
vt 0.776745 0.019179
vt 0.783501 0.019261
vt 0.788004 0.022995
vt 0.779682 0.015775
vt 0.770518 0.020377
vt 0.773546 0.016566
vt 0.776659 0.012856
vt 0.572644 0.940831
vt 0.576922 0.938130
vt 0.579481 0.941330
vt 0.575411 0.944354
vt 0.582032 0.935053
vt 0.584332 0.938008
vt 0.582084 0.944462
vt 0.578234 0.947789
vt 0.586666 0.940914
vt 0.569301 0.943014
vt 0.575223 0.950589
vt 0.572221 0.946850
vt 0.015803 0.221978
vt 0.013875 0.222021
vt 0.013157 0.218655
vt 0.015271 0.218655
vt 0.011931 0.221974
vt 0.011075 0.218624
vt 0.012376 0.215479
vt 0.014493 0.215606
vt 0.010377 0.215536
vt 0.017586 0.224985
vt 0.016080 0.225471
vt 0.017468 0.221439
vt 0.014361 0.225516
vt 0.012611 0.225481
vt 0.010770 0.225026
vt 0.010020 0.221475
vt 0.009146 0.218099
vt 0.008663 0.215072
vt 0.008810 0.212764
vt 0.009999 0.212515
vt 0.011834 0.212280
vt 0.013849 0.212562
vt 0.016370 0.215133
vt 0.015480 0.212822
vt 0.017120 0.218093
vt 0.014586 0.250067
vt 0.012263 0.250255
vt 0.012726 0.247014
vt 0.015116 0.246941
vt 0.009985 0.250184
vt 0.010342 0.247051
vt 0.013196 0.243619
vt 0.015440 0.243578
vt 0.010929 0.243675
vt 0.015763 0.252656
vt 0.014064 0.253092
vt 0.016617 0.250301
vt 0.011872 0.253444
vt 0.009774 0.253193
vt 0.008255 0.252816
vt 0.007948 0.250496
vt 0.008047 0.247382
vt 0.008629 0.243827
vt 0.009428 0.240064
vt 0.011613 0.240153
vt 0.013654 0.240118
vt 0.015671 0.240078
vt 0.017528 0.243705
vt 0.017584 0.239978
vt 0.017246 0.247214
vt 0.015887 0.236473
vt 0.014072 0.236512
vt 0.014385 0.232821
vt 0.016061 0.232782
vt 0.012230 0.236520
vt 0.012679 0.232807
vt 0.014514 0.229126
vt 0.016142 0.229088
vt 0.012846 0.229099
vt 0.017610 0.236193
vt 0.010191 0.236239
vt 0.010775 0.232425
vt 0.011016 0.228674
vt 0.017615 0.228642
vt 0.017621 0.232394
vt 0.829706 0.034664
vt 0.825531 0.033126
vt 0.824139 0.029167
vt 0.827804 0.030398
vt 0.820825 0.031337
vt 0.820059 0.027621
vt 0.822747 0.025303
vt 0.825888 0.026253
vt 0.819287 0.023984
vt 0.833072 0.035798
vt 0.815932 0.029413
vt 0.815854 0.025816
vt 0.815763 0.022289
vt 0.815703 0.019460
vt 0.818704 0.021054
vt 0.821736 0.022167
vt 0.824591 0.022914
vt 0.828566 0.026780
vt 0.826881 0.023664
vt 0.830834 0.031219
vt 0.600835 0.941670
vt 0.605431 0.939455
vt 0.606854 0.943549
vt 0.602878 0.945780
vt 0.610148 0.937496
vt 0.610884 0.941494
vt 0.608266 0.947592
vt 0.604890 0.949845
vt 0.611615 0.945438
vt 0.612293 0.948678
vt 0.609499 0.950891
vt 0.606604 0.953152
vt 0.811153 0.027434
vt 0.806535 0.025313
vt 0.807884 0.021561
vt 0.811790 0.023795
vt 0.802063 0.022917
vt 0.804082 0.019107
vt 0.809208 0.017862
vt 0.812410 0.020217
vt 0.806068 0.015342
vt 0.807658 0.012327
vt 0.810272 0.014902
vt 0.812913 0.017353
vt 0.010846 0.197553
vt 0.012663 0.197076
vt 0.012322 0.202380
vt 0.010419 0.202843
vt 0.014450 0.197520
vt 0.014285 0.202802
vt 0.011966 0.207736
vt 0.010088 0.208118
vt 0.013998 0.208100
vt 0.008677 0.198998
vt 0.016510 0.198966
vt 0.016330 0.204157
vt 0.015994 0.209240
vt 0.008460 0.209233
vt 0.008487 0.204185
vt 0.013854 0.265456
vt 0.011359 0.265744
vt 0.011503 0.261540
vt 0.013988 0.261172
vt 0.008916 0.265523
vt 0.009100 0.261248
vt 0.011659 0.257277
vt 0.013992 0.256872
vt 0.009428 0.256955
vt 0.016816 0.264641
vt 0.006091 0.264726
vt 0.006645 0.260231
vt 0.007415 0.255879
vt 0.016274 0.255745
vt 0.016646 0.260123
s 1
usemtl Petalos
f 325/1/1 326/2/2 329/3/3 328/4/4
f 326/2/2 327/5/5 330/6/6 329/3/3
f 328/4/4 329/3/3 332/7/7 331/8/8
f 329/3/3 330/6/6 333/9/9 332/7/7
f 13/10/10 180/11/11 325/1/1 111/12/12
f 180/11/11 179/13/13 326/2/2 325/1/1
f 179/13/13 178/14/14 327/5/5 326/2/2
f 178/14/14 16/15/15 55/16/16 327/5/5
f 327/5/5 55/16/16 56/17/17 330/6/6
f 330/6/6 56/17/17 57/18/18 333/9/9
f 333/9/9 57/18/18 4/19/19 58/20/20
f 332/7/7 333/9/9 58/20/20 59/21/21
f 331/8/8 332/7/7 59/21/21 60/22/22
f 109/23/23 331/8/8 60/22/22 3/24/24
f 110/25/25 328/4/4 331/8/8 109/23/23
f 111/12/12 325/1/1 328/4/4 110/25/25
f 334/26/26 335/27/27 338/28/28 337/29/29
f 335/27/27 336/30/30 339/31/31 338/28/28
f 337/29/29 338/28/28 341/32/32 340/33/33
f 338/28/28 339/31/31 342/34/34 341/32/32
f 3/35/24 60/36/22 334/26/26 63/37/35
f 60/36/22 59/38/21 335/27/27 334/26/26
f 59/38/21 58/39/20 336/30/30 335/27/27
f 58/39/20 4/40/19 64/41/36 336/30/30
f 336/30/30 64/41/36 65/42/37 339/31/31
f 339/31/31 65/42/37 66/43/38 342/34/34
f 342/34/34 66/43/38 8/44/39 67/45/40
f 341/32/32 342/34/34 67/45/40 68/46/41
f 340/33/33 341/32/32 68/46/41 69/47/42
f 61/48/43 340/33/33 69/47/42 7/49/44
f 62/50/45 337/29/29 340/33/33 61/48/43
f 63/37/35 334/26/26 337/29/29 62/50/45
f 343/51/46 344/52/47 347/53/48 346/54/49
f 344/52/47 345/55/50 348/56/51 347/53/48
f 346/54/49 347/53/48 350/57/52 349/58/53
f 347/53/48 348/56/51 351/59/54 350/57/52
f 17/60/55 174/61/56 343/51/46 123/62/57
f 174/61/56 173/63/58 344/52/47 343/51/46
f 173/63/58 172/64/59 345/55/50 344/52/47
f 172/64/59 20/65/60 73/66/61 345/55/50
f 345/55/50 73/66/61 74/67/62 348/56/51
f 348/56/51 74/67/62 75/68/63 351/59/54
f 351/59/54 75/68/63 6/69/64 76/70/65
f 350/57/52 351/59/54 76/70/65 77/71/66
f 349/58/53 350/57/52 77/71/66 78/72/67
f 121/73/68 349/58/53 78/72/67 5/74/69
f 122/75/70 346/54/49 349/58/53 121/73/68
f 123/62/57 343/51/46 346/54/49 122/75/70
f 352/76/71 353/77/72 356/78/73 355/79/74
f 353/77/72 354/80/75 357/81/76 356/78/73
f 355/79/74 356/78/73 359/82/77 358/83/78
f 356/78/73 357/81/76 360/84/79 359/82/77
f 5/85/69 78/86/67 352/76/71 81/87/80
f 78/86/67 77/88/66 353/77/72 352/76/71
f 77/88/66 76/89/65 354/80/75 353/77/72
f 76/89/65 6/90/64 82/91/81 354/80/75
f 354/80/75 82/91/81 83/92/82 357/81/76
f 357/81/76 83/92/82 84/93/83 360/84/79
f 360/84/79 84/93/83 2/94/84 54/95/85
f 359/82/77 360/84/79 54/95/85 53/96/86
f 358/83/78 359/82/77 53/96/86 52/97/87
f 79/98/88 358/83/78 52/97/87 1/99/89
f 80/100/90 355/79/74 358/83/78 79/98/88
f 81/87/80 352/76/71 355/79/74 80/100/90
f 361/101/91 362/102/92 365/103/93 364/104/94
f 362/102/92 363/105/95 366/106/96 365/103/93
f 364/104/94 365/103/93 368/107/97 367/108/98
f 365/103/93 366/106/96 369/109/99 368/107/97
f 13/10/10 111/12/12 361/101/91 166/110/100
f 111/12/12 110/25/25 362/102/92 361/101/91
f 110/25/25 109/23/23 363/105/95 362/102/92
f 109/23/23 3/24/24 97/111/101 363/105/95
f 363/105/95 97/111/101 98/112/102 366/106/96
f 366/106/96 98/112/102 99/113/103 369/109/99
f 369/109/99 99/113/103 10/114/104 133/115/105
f 368/107/97 369/109/99 133/115/105 134/116/106
f 367/108/98 368/107/97 134/116/106 135/117/107
f 168/118/108 367/108/98 135/117/107 21/119/109
f 167/120/110 364/104/94 367/108/98 168/118/108
f 166/110/100 361/101/91 364/104/94 167/120/110
f 370/121/111 371/122/112 374/123/113 373/124/114
f 371/122/112 372/125/115 375/126/116 374/123/113
f 373/124/114 374/123/113 377/127/117 376/128/118
f 374/123/113 375/126/116 378/129/119 377/127/117
f 20/130/60 162/131/120 370/121/111 73/132/61
f 162/131/120 161/133/121 371/122/112 370/121/111
f 161/133/121 160/134/122 372/125/115 371/122/112
f 160/134/122 15/135/123 117/136/124 372/125/115
f 372/125/115 117/136/124 116/137/125 375/126/116
f 375/126/116 116/137/125 115/138/126 378/129/119
f 378/129/119 115/138/126 2/139/84 84/140/83
f 377/127/117 378/129/119 84/140/83 83/141/82
f 376/128/118 377/127/117 83/141/82 82/142/81
f 75/143/63 376/128/118 82/142/81 6/144/64
f 74/145/62 373/124/114 376/128/118 75/143/63
f 73/132/61 370/121/111 373/124/114 74/145/62
f 379/146/127 380/147/128 383/148/129 382/149/130
f 380/147/128 381/150/131 384/151/132 383/148/129
f 382/149/130 383/148/129 386/152/133 385/153/134
f 383/148/129 384/151/132 387/154/135 386/152/133
f 12/155/136 93/156/137 379/146/127 219/157/138
f 93/156/137 92/158/139 380/147/128 379/146/127
f 92/158/139 91/159/140 381/150/131 380/147/128
f 91/159/140 24/160/141 153/161/142 381/150/131
f 381/150/131 153/161/142 152/162/143 384/151/132
f 384/151/132 152/162/143 151/163/144 387/154/135
f 387/154/135 151/163/144 32/164/145 187/165/146
f 386/152/133 387/154/135 187/165/146 188/166/147
f 385/153/134 386/152/133 188/166/147 189/167/148
f 217/168/149 385/153/134 189/167/148 28/169/150
f 218/170/151 382/149/130 385/153/134 217/168/149
f 219/157/138 379/146/127 382/149/130 218/170/151
f 388/171/152 389/172/153 392/173/154 391/174/155
f 389/172/153 390/175/156 393/176/157 392/173/154
f 391/174/155 392/173/154 395/177/158 394/178/159
f 392/173/154 393/176/157 396/179/160 395/177/158
f 17/60/55 123/62/57 388/171/152 148/180/161
f 123/62/57 122/75/70 389/172/153 388/171/152
f 122/75/70 121/73/68 390/175/156 389/172/153
f 121/73/68 5/74/69 103/181/162 390/175/156
f 390/175/156 103/181/162 104/182/163 393/176/157
f 393/176/157 104/182/163 105/183/164 396/179/160
f 396/179/160 105/183/164 11/184/165 139/185/166
f 395/177/158 396/179/160 139/185/166 140/186/167
f 394/178/159 395/177/158 140/186/167 141/187/168
f 150/188/169 394/178/159 141/187/168 23/189/170
f 149/190/171 391/174/155 394/178/159 150/188/169
f 148/180/161 388/171/152 391/174/155 149/190/171
f 397/191/172 398/192/173 401/193/174 400/194/175
f 398/192/173 399/195/176 402/196/177 401/193/174
f 400/194/175 401/193/174 404/197/178 403/198/179
f 401/193/174 402/196/177 405/199/180 404/197/178
f 5/85/69 81/87/80 397/191/172 103/200/162
f 81/87/80 80/100/90 398/192/173 397/191/172
f 80/100/90 79/98/88 399/195/176 398/192/173
f 79/98/88 1/99/89 102/201/181 399/195/176
f 399/195/176 102/201/181 101/202/182 402/196/177
f 402/196/177 101/202/182 100/203/183 405/199/180
f 405/199/180 100/203/183 9/204/184 94/205/185
f 404/197/178 405/199/180 94/205/185 95/206/186
f 403/198/179 404/197/178 95/206/186 96/207/187
f 105/208/164 403/198/179 96/207/187 11/209/165
f 104/210/163 400/194/175 403/198/179 105/208/164
f 103/200/162 397/191/172 400/194/175 104/210/163
f 406/211/188 407/212/189 410/213/190 409/214/191
f 407/212/189 408/215/192 411/216/193 410/213/190
f 409/214/191 410/213/190 413/217/194 412/218/195
f 410/213/190 411/216/193 414/219/196 413/217/194
f 3/35/24 63/37/35 406/211/188 97/220/101
f 63/37/35 62/50/45 407/212/189 406/211/188
f 62/50/45 61/48/43 408/215/192 407/212/189
f 61/48/43 7/49/44 108/221/197 408/215/192
f 408/215/192 108/221/197 107/222/198 411/216/193
f 411/216/193 107/222/198 106/223/199 414/219/196
f 414/219/196 106/223/199 12/224/136 88/225/200
f 413/217/194 414/219/196 88/225/200 89/226/201
f 412/218/195 413/217/194 89/226/201 90/227/202
f 99/228/103 412/218/195 90/227/202 10/229/104
f 98/230/102 409/214/191 412/218/195 99/228/103
f 97/220/101 406/211/188 409/214/191 98/230/102
f 415/231/203 416/232/204 419/233/205 418/234/206
f 416/232/204 417/235/207 420/236/208 419/233/205
f 418/234/206 419/233/205 422/237/209 421/238/210
f 419/233/205 420/236/208 423/239/211 422/237/209
f 7/240/44 72/241/212 415/231/203 108/242/197
f 72/241/212 71/243/213 416/232/204 415/231/203
f 71/243/213 70/244/214 417/235/207 416/232/204
f 70/244/214 18/245/215 145/246/216 417/235/207
f 417/235/207 145/246/216 146/247/217 420/236/208
f 420/236/208 146/247/217 147/248/218 423/239/211
f 423/239/211 147/248/218 24/160/141 91/159/140
f 422/237/209 423/239/211 91/159/140 92/158/139
f 421/238/210 422/237/209 92/158/139 93/156/137
f 106/249/199 421/238/210 93/156/137 12/155/136
f 107/250/198 418/234/206 421/238/210 106/249/199
f 108/242/197 415/231/203 418/234/206 107/250/198
f 424/251/219 425/252/220 428/253/221 427/254/222
f 425/252/220 426/255/223 429/256/224 428/253/221
f 427/254/222 428/253/221 431/257/225 430/258/226
f 428/253/221 429/256/224 432/259/227 431/257/225
f 18/245/215 126/260/228 424/251/219 145/246/216
f 126/260/228 125/261/229 425/252/220 424/251/219
f 125/261/229 124/262/230 426/255/223 425/252/220
f 124/262/230 17/60/55 148/180/161 426/255/223
f 426/255/223 148/180/161 149/190/171 429/256/224
f 429/256/224 149/190/171 150/188/169 432/259/227
f 432/259/227 150/188/169 23/189/170 142/263/231
f 431/257/225 432/259/227 142/263/231 143/264/232
f 430/258/226 431/257/225 143/264/232 144/265/233
f 147/248/218 430/258/226 144/265/233 24/160/141
f 146/247/217 427/254/222 430/258/226 147/248/218
f 145/246/216 424/251/219 427/254/222 146/247/217
f 433/266/234 434/267/234 437/268/234 436/269/234
f 434/267/234 435/270/234 438/271/234 437/268/234
f 436/269/234 437/268/234 440/272/234 439/273/234
f 437/268/234 438/271/234 441/274/234 440/272/234
f 22/275/235 138/276/234 433/266/234 216/277/236
f 138/276/234 137/278/234 434/267/234 433/266/234
f 137/278/234 136/279/234 435/270/234 434/267/234
f 136/279/234 21/119/109 211/280/237 435/270/234
f 435/270/234 211/280/237 212/281/238 438/271/234
f 438/271/234 212/281/238 213/282/239 441/274/234
f 441/274/234 213/282/239 29/283/240 196/284/234
f 440/272/234 441/274/234 196/284/234 197/285/234
f 439/273/234 440/272/234 197/285/234 198/286/234
f 214/287/241 439/273/234 198/286/234 30/288/242
f 215/289/243 436/269/234 439/273/234 214/287/241
f 216/277/236 433/266/234 436/269/234 215/289/243
f 442/290/244 443/291/245 446/292/246 445/293/247
f 443/291/245 444/294/248 447/295/249 446/292/246
f 445/293/247 446/292/246 449/296/250 448/297/251
f 446/292/246 447/295/249 450/298/252 449/296/250
f 24/160/141 144/265/233 442/290/244 153/161/142
f 144/265/233 143/264/232 443/291/245 442/290/244
f 143/264/232 142/263/231 444/294/248 443/291/245
f 142/263/231 23/189/170 154/299/253 444/294/248
f 444/294/248 154/299/253 155/300/254 447/295/249
f 447/295/249 155/300/254 156/301/255 450/298/252
f 450/298/252 156/301/255 31/302/256 202/303/257
f 449/296/250 450/298/252 202/303/257 203/304/258
f 448/297/251 449/296/250 203/304/258 204/305/259
f 151/163/144 448/297/251 204/305/259 32/164/145
f 152/162/143 445/293/247 448/297/251 151/163/144
f 153/161/142 442/290/244 445/293/247 152/162/143
f 451/306/260 452/307/261 455/308/262 454/309/263
f 452/307/261 453/310/264 456/311/265 455/308/262
f 454/309/263 455/308/262 458/312/266 457/313/267
f 455/308/262 456/311/265 459/314/268 458/312/266
f 8/44/39 66/43/38 451/306/260 127/315/269
f 66/43/38 65/42/37 452/307/261 451/306/260
f 65/42/37 64/41/36 453/310/264 452/307/261
f 64/41/36 4/40/19 57/316/18 453/310/264
f 453/310/264 57/316/18 56/317/17 456/311/265
f 456/311/265 56/317/17 55/318/16 459/314/268
f 459/314/268 55/318/16 16/319/15 157/320/270
f 458/312/266 459/314/268 157/320/270 158/321/271
f 457/313/267 458/312/266 158/321/271 159/322/272
f 129/323/273 457/313/267 159/322/272 19/324/274
f 128/325/275 454/309/263 457/313/267 129/323/273
f 127/315/269 451/306/260 454/309/263 128/325/275
f 460/326/276 461/327/277 464/328/278 463/329/279
f 461/327/277 462/330/280 465/331/281 464/328/278
f 463/329/279 464/328/278 467/332/282 466/333/283
f 464/328/278 465/331/281 468/334/284 467/332/282
f 19/324/274 159/322/272 460/326/276 130/335/285
f 159/322/272 158/321/271 461/327/277 460/326/276
f 158/321/271 157/320/270 462/330/280 461/327/277
f 157/320/270 16/319/15 120/336/286 462/330/280
f 462/330/280 120/336/286 119/337/287 465/331/281
f 465/331/281 119/337/287 118/338/288 468/334/284
f 468/334/284 118/338/288 15/135/123 160/134/122
f 467/332/282 468/334/284 160/134/122 161/133/121
f 466/333/283 467/332/282 161/133/121 162/131/120
f 132/339/289 466/333/283 162/131/120 20/130/60
f 131/340/290 463/329/279 466/333/283 132/339/289
f 130/335/285 460/326/276 463/329/279 131/340/290
f 469/341/291 470/342/292 473/343/293 472/344/294
f 470/342/292 471/345/295 474/346/296 473/343/293
f 472/344/294 473/343/293 476/347/297 475/348/298
f 473/343/293 474/346/296 477/349/299 476/347/297
f 1/350/89 51/351/300 469/341/291 102/352/181
f 51/351/300 50/353/301 470/342/292 469/341/291
f 50/353/301 49/354/302 471/345/295 470/342/292
f 49/354/302 14/355/303 163/356/304 471/345/295
f 471/345/295 163/356/304 164/357/305 474/346/296
f 474/346/296 164/357/305 165/358/306 477/349/299
f 477/349/299 165/358/306 22/275/235 85/359/307
f 476/347/297 477/349/299 85/359/307 86/360/308
f 475/348/298 476/347/297 86/360/308 87/361/309
f 100/362/183 475/348/298 87/361/309 9/363/184
f 101/364/182 472/344/294 475/348/298 100/362/183
f 102/352/181 469/341/291 472/344/294 101/364/182
f 478/365/310 479/366/311 482/367/312 481/368/313
f 479/366/311 480/369/314 483/370/315 482/367/312
f 481/368/313 482/367/312 485/371/234 484/372/234
f 482/367/312 483/370/315 486/373/234 485/371/234
f 14/355/303 114/374/316 478/365/310 163/356/304
f 114/374/316 113/375/317 479/366/311 478/365/310
f 113/375/317 112/376/318 480/369/314 479/366/311
f 112/376/318 13/10/10 166/110/100 480/369/314
f 480/369/314 166/110/100 167/120/110 483/370/315
f 483/370/315 167/120/110 168/118/108 486/373/234
f 486/373/234 168/118/108 21/119/109 136/279/234
f 485/371/234 486/373/234 136/279/234 137/278/234
f 484/372/234 485/371/234 137/278/234 138/276/234
f 165/358/306 484/372/234 138/276/234 22/275/235
f 164/357/305 481/368/313 484/372/234 165/358/306
f 163/356/304 478/365/310 481/368/313 164/357/305
f 487/377/319 488/378/320 491/379/321 490/380/322
f 488/378/320 489/381/323 492/382/324 491/379/321
f 490/380/322 491/379/321 494/383/325 493/384/326
f 491/379/321 492/382/324 495/385/327 494/383/325
f 7/240/44 69/386/42 487/377/319 72/241/212
f 69/386/42 68/387/41 488/378/320 487/377/319
f 68/387/41 67/388/40 489/381/323 488/378/320
f 67/388/40 8/389/39 127/390/269 489/381/323
f 489/381/323 127/390/269 128/391/275 492/382/324
f 492/382/324 128/391/275 129/392/273 495/385/327
f 495/385/327 129/392/273 19/393/274 169/394/328
f 494/383/325 495/385/327 169/394/328 170/395/329
f 493/384/326 494/383/325 170/395/329 171/396/330
f 70/244/214 493/384/326 171/396/330 18/245/215
f 71/243/213 490/380/322 493/384/326 70/244/214
f 72/241/212 487/377/319 490/380/322 71/243/213
f 496/397/331 497/398/332 500/399/333 499/400/334
f 497/398/332 498/401/335 501/402/336 500/399/333
f 499/400/334 500/399/333 503/403/337 502/404/338
f 500/399/333 501/402/336 504/405/339 503/403/337
f 18/245/215 171/396/330 496/397/331 126/260/228
f 171/396/330 170/395/329 497/398/332 496/397/331
f 170/395/329 169/394/328 498/401/335 497/398/332
f 169/394/328 19/393/274 130/406/285 498/401/335
f 498/401/335 130/406/285 131/407/290 501/402/336
f 501/402/336 131/407/290 132/408/289 504/405/339
f 504/405/339 132/408/289 20/65/60 172/64/59
f 503/403/337 504/405/339 172/64/59 173/63/58
f 502/404/338 503/403/337 173/63/58 174/61/56
f 124/262/230 502/404/338 174/61/56 17/60/55
f 125/261/229 499/400/334 502/404/338 124/262/230
f 126/260/228 496/397/331 499/400/334 125/261/229
f 505/409/340 506/410/341 509/411/342 508/412/343
f 506/410/341 507/413/344 510/414/345 509/411/342
f 508/412/343 509/411/342 512/415/346 511/416/347
f 509/411/342 510/414/345 513/417/348 512/415/346
f 1/350/89 52/418/87 505/409/340 51/351/300
f 52/418/87 53/419/86 506/410/341 505/409/340
f 53/419/86 54/420/85 507/413/344 506/410/341
f 54/420/85 2/421/84 115/422/126 507/413/344
f 507/413/344 115/422/126 116/423/125 510/414/345
f 510/414/345 116/423/125 117/424/124 513/417/348
f 513/417/348 117/424/124 15/425/123 175/426/349
f 512/415/346 513/417/348 175/426/349 176/427/350
f 511/416/347 512/415/346 176/427/350 177/428/351
f 49/354/302 511/416/347 177/428/351 14/355/303
f 50/353/301 508/412/343 511/416/347 49/354/302
f 51/351/300 505/409/340 508/412/343 50/353/301
f 514/429/352 515/430/353 518/431/354 517/432/355
f 515/430/353 516/433/356 519/434/357 518/431/354
f 517/432/355 518/431/354 521/435/358 520/436/359
f 518/431/354 519/434/357 522/437/360 521/435/358
f 14/355/303 177/428/351 514/429/352 114/374/316
f 177/428/351 176/427/350 515/430/353 514/429/352
f 176/427/350 175/426/349 516/433/356 515/430/353
f 175/426/349 15/425/123 118/438/288 516/433/356
f 516/433/356 118/438/288 119/439/287 519/434/357
f 519/434/357 119/439/287 120/440/286 522/437/360
f 522/437/360 120/440/286 16/15/15 178/14/14
f 521/435/358 522/437/360 178/14/14 179/13/13
f 520/436/359 521/435/358 179/13/13 180/11/11
f 112/376/318 520/436/359 180/11/11 13/10/10
f 113/375/317 517/432/355 520/436/359 112/376/318
f 114/374/316 514/429/352 517/432/355 113/375/317
f 523/441/234 524/442/234 527/443/234 526/444/234
f 524/442/234 525/445/234 528/446/234 527/443/234
f 526/444/234 527/443/234 530/447/234 529/448/234
f 527/443/234 528/446/234 531/449/234 530/447/234
f 30/288/242 198/286/234 523/441/234 208/450/361
f 198/286/234 197/285/234 524/442/234 523/441/234
f 197/285/234 196/284/234 525/445/234 524/442/234
f 196/284/234 29/283/240 265/451/362 525/445/234
f 525/445/234 265/451/362 266/452/363 528/446/234
f 528/446/234 266/452/363 267/453/364 531/449/234
f 531/449/234 267/453/364 37/454/365 244/455/234
f 530/447/234 531/449/234 244/455/234 245/456/234
f 529/448/234 530/447/234 245/456/234 246/457/234
f 210/458/366 529/448/234 246/457/234 38/459/367
f 209/460/368 526/444/234 529/448/234 210/458/366
f 208/450/361 523/441/234 526/444/234 209/460/368
f 532/461/369 533/462/370 536/463/371 535/464/372
f 533/462/370 534/465/373 537/466/374 536/463/371
f 535/464/372 536/463/371 539/467/375 538/468/376
f 536/463/371 537/466/374 540/469/377 539/467/375
f 32/164/145 204/305/259 532/461/369 264/470/378
f 204/305/259 203/304/258 533/462/370 532/461/369
f 203/304/258 202/303/257 534/465/373 533/462/370
f 202/303/257 31/302/256 259/471/379 534/465/373
f 534/465/373 259/471/379 260/472/380 537/466/374
f 537/466/374 260/472/380 261/473/381 540/469/377
f 540/469/377 261/473/381 39/474/382 250/475/383
f 539/467/375 540/469/377 250/475/383 251/476/384
f 538/468/376 539/467/375 251/476/384 252/477/385
f 262/478/386 538/468/376 252/477/385 40/479/387
f 263/480/388 535/464/372 538/468/376 262/478/386
f 264/470/378 532/461/369 535/464/372 263/480/388
f 541/481/389 542/482/390 545/483/391 544/484/392
f 542/482/390 543/485/393 546/486/394 545/483/391
f 544/484/392 545/483/391 548/487/395 547/488/396
f 545/483/391 546/486/394 549/489/397 548/487/395
f 25/490/398 183/491/399 541/481/389 207/492/400
f 183/491/399 182/493/401 542/482/390 541/481/389
f 182/493/401 181/494/402 543/485/393 542/482/390
f 181/494/402 30/288/242 208/450/361 543/485/393
f 543/485/393 208/450/361 209/460/368 546/486/394
f 546/486/394 209/460/368 210/458/366 549/489/397
f 549/489/397 210/458/366 38/459/367 229/495/403
f 548/487/395 549/489/397 229/495/403 230/496/404
f 547/488/396 548/487/395 230/496/404 231/497/405
f 205/498/406 547/488/396 231/497/405 33/499/407
f 206/500/408 544/484/392 547/488/396 205/498/406
f 207/492/400 541/481/389 544/484/392 206/500/408
f 550/501/409 551/502/410 554/503/411 553/504/412
f 551/502/410 552/505/413 555/506/414 554/503/411
f 553/504/412 554/503/411 557/507/415 556/508/416
f 554/503/411 555/506/414 558/509/417 557/507/415
f 9/363/184 87/361/309 550/501/409 222/510/418
f 87/361/309 86/360/308 551/502/410 550/501/409
f 86/360/308 85/359/307 552/505/413 551/502/410
f 85/359/307 22/275/235 216/277/236 552/505/413
f 552/505/413 216/277/236 215/289/243 555/506/414
f 555/506/414 215/289/243 214/287/241 558/509/417
f 558/509/417 214/287/241 30/288/242 181/494/402
f 557/507/415 558/509/417 181/494/402 182/493/401
f 556/508/416 557/507/415 182/493/401 183/491/399
f 220/511/419 556/508/416 183/491/399 25/490/398
f 221/512/420 553/504/412 556/508/416 220/511/419
f 222/510/418 550/501/409 553/504/412 221/512/420
f 559/513/421 560/514/422 563/515/423 562/516/424
f 560/514/422 561/517/425 564/518/426 563/515/423
f 562/516/424 563/515/423 566/519/427 565/520/428
f 563/515/423 564/518/426 567/521/429 566/519/427
f 23/189/170 141/187/168 559/513/421 154/299/253
f 141/187/168 140/186/167 560/514/422 559/513/421
f 140/186/167 139/185/166 561/517/425 560/514/422
f 139/185/166 11/184/165 223/522/430 561/517/425
f 561/517/425 223/522/430 224/523/431 564/518/426
f 564/518/426 224/523/431 225/524/432 567/521/429
f 567/521/429 225/524/432 27/525/433 199/526/434
f 566/519/427 567/521/429 199/526/434 200/527/435
f 565/520/428 566/519/427 200/527/435 201/528/436
f 156/301/255 565/520/428 201/528/436 31/302/256
f 155/300/254 562/516/424 565/520/428 156/301/255
f 154/299/253 559/513/421 562/516/424 155/300/254
f 568/529/437 569/530/438 572/531/439 571/532/440
f 569/530/438 570/533/441 573/534/442 572/531/439
f 571/532/440 572/531/439 575/535/443 574/536/444
f 572/531/439 573/534/442 576/537/445 575/535/443
f 21/119/109 135/117/107 568/529/437 211/280/237
f 135/117/107 134/116/106 569/530/438 568/529/437
f 134/116/106 133/115/105 570/533/441 569/530/438
f 133/115/105 10/114/104 226/538/446 570/533/441
f 570/533/441 226/538/446 227/539/447 573/534/442
f 573/534/442 227/539/447 228/540/448 576/537/445
f 576/537/445 228/540/448 26/541/449 193/542/450
f 575/535/443 576/537/445 193/542/450 194/543/451
f 574/536/444 575/535/443 194/543/451 195/544/452
f 213/282/239 574/536/444 195/544/452 29/283/240
f 212/281/238 571/532/440 574/536/444 213/282/239
f 211/280/237 568/529/437 571/532/440 212/281/238
f 577/545/453 578/546/454 581/547/455 580/548/456
f 578/546/454 579/549/457 582/550/458 581/547/455
f 580/548/456 581/547/455 584/551/459 583/552/460
f 581/547/455 582/550/458 585/553/461 584/551/459
f 11/209/165 96/207/187 577/545/453 223/554/430
f 96/207/187 95/206/186 578/546/454 577/545/453
f 95/206/186 94/205/185 579/549/457 578/546/454
f 94/205/185 9/204/184 222/555/418 579/549/457
f 579/549/457 222/555/418 221/556/420 582/550/458
f 582/550/458 221/556/420 220/557/419 585/553/461
f 585/553/461 220/557/419 25/558/398 190/559/462
f 584/551/459 585/553/461 190/559/462 191/560/463
f 583/552/460 584/551/459 191/560/463 192/561/464
f 225/562/432 583/552/460 192/561/464 27/563/433
f 224/564/431 580/548/456 583/552/460 225/562/432
f 223/554/430 577/545/453 580/548/456 224/564/431
f 586/565/465 587/566/466 590/567/467 589/568/468
f 587/566/466 588/569/469 591/570/470 590/567/467
f 589/568/468 590/567/467 593/571/471 592/572/472
f 590/567/467 591/570/470 594/573/473 593/571/471
f 10/229/104 90/227/202 586/565/465 226/574/446
f 90/227/202 89/226/201 587/566/466 586/565/465
f 89/226/201 88/225/200 588/569/469 587/566/466
f 88/225/200 12/224/136 219/575/138 588/569/469
f 588/569/469 219/575/138 218/576/151 591/570/470
f 591/570/470 218/576/151 217/577/149 594/573/473
f 594/573/473 217/577/149 28/578/150 184/579/474
f 593/571/471 594/573/473 184/579/474 185/580/475
f 592/572/472 593/571/471 185/580/475 186/581/476
f 228/582/448 592/572/472 186/581/476 26/583/449
f 227/584/447 589/568/468 592/572/472 228/582/448
f 226/574/446 586/565/465 589/568/468 227/584/447
f 595/585/477 596/586/478 599/587/479 598/588/480
f 596/586/478 597/589/481 600/590/482 599/587/479
f 598/588/480 599/587/479 602/591/483 601/592/484
f 599/587/479 600/590/482 603/593/485 602/591/483
f 36/594/486 237/595/487 595/585/477 318/596/488
f 237/595/487 236/597/489 596/586/478 595/585/477
f 236/597/489 235/598/490 597/589/481 596/586/478
f 235/598/490 40/479/387 313/599/491 597/589/481
f 597/589/481 313/599/491 314/600/492 600/590/482
f 600/590/482 314/600/492 315/601/493 603/593/485
f 603/593/485 315/601/493 48/602/494 283/603/495
f 602/591/483 603/593/485 283/603/495 284/604/496
f 601/592/484 602/591/483 284/604/496 285/605/497
f 316/606/498 601/592/484 285/605/497 44/607/499
f 317/608/500 598/588/480 601/592/484 316/606/498
f 318/596/488 595/585/477 598/588/480 317/608/500
f 604/609/501 605/610/502 608/611/503 607/612/504
f 605/610/502 606/613/505 609/614/506 608/611/503
f 607/612/504 608/611/503 611/615/507 610/616/508
f 608/611/503 609/614/506 612/617/509 611/615/507
f 37/454/365 243/618/510 604/609/501 312/619/511
f 243/618/510 242/620/512 605/610/502 604/609/501
f 242/620/512 241/621/513 606/613/505 605/610/502
f 241/621/513 34/622/514 307/623/515 606/613/505
f 606/613/505 307/623/515 308/624/516 609/614/506
f 609/614/506 308/624/516 309/625/517 612/617/509
f 612/617/509 309/625/517 42/626/518 289/627/519
f 611/615/507 612/617/509 289/627/519 290/628/520
f 610/616/508 611/615/507 290/628/520 291/629/521
f 310/630/522 610/616/508 291/629/521 45/631/523
f 311/632/524 607/612/504 610/616/508 310/630/522
f 312/619/511 604/609/501 607/612/504 311/632/524
f 613/633/525 614/634/526 617/635/527 616/636/528
f 614/634/526 615/637/529 618/638/530 617/635/527
f 616/636/528 617/635/527 620/639/531 619/640/532
f 617/635/527 618/638/530 621/641/533 620/639/531
f 39/474/382 249/642/534 613/633/525 255/643/535
f 249/642/534 248/644/536 614/634/526 613/633/525
f 248/644/536 247/645/537 615/637/529 614/634/526
f 247/645/537 35/646/538 256/647/539 615/637/529
f 615/637/529 256/647/539 257/648/540 618/638/530
f 618/638/530 257/648/540 258/649/541 621/641/533
f 621/641/533 258/649/541 43/650/542 295/651/543
f 620/639/531 621/641/533 295/651/543 296/652/544
f 619/640/532 620/639/531 296/652/544 297/653/545
f 253/654/546 619/640/532 297/653/545 47/655/547
f 254/656/548 616/636/528 619/640/532 253/654/546
f 255/643/535 613/633/525 616/636/528 254/656/548
f 622/657/549 623/658/550 626/659/551 625/660/552
f 623/658/550 624/661/553 627/662/554 626/659/551
f 625/660/552 626/659/551 629/663/555 628/664/556
f 626/659/551 627/662/554 630/665/557 629/663/555
f 27/563/433 192/561/464 622/657/549 270/666/558
f 192/561/464 191/560/463 623/658/550 622/657/549
f 191/560/463 190/559/462 624/661/553 623/658/550
f 190/559/462 25/558/398 207/667/400 624/661/553
f 624/661/553 207/667/400 206/668/408 627/662/554
f 627/662/554 206/668/408 205/669/406 630/665/557
f 630/665/557 205/669/406 33/670/407 238/671/559
f 629/663/555 630/665/557 238/671/559 239/672/560
f 628/664/556 629/663/555 239/672/560 240/673/561
f 268/674/562 628/664/556 240/673/561 35/675/538
f 269/676/563 625/660/552 628/664/556 268/674/562
f 270/666/558 622/657/549 625/660/552 269/676/563
f 631/677/564 632/678/565 635/679/566 634/680/567
f 632/678/565 633/681/568 636/682/569 635/679/566
f 634/680/567 635/679/566 638/683/570 637/684/571
f 635/679/566 636/682/569 639/685/572 638/683/570
f 26/583/449 186/581/476 631/677/564 276/686/573
f 186/581/476 185/580/475 632/678/565 631/677/564
f 185/580/475 184/579/474 633/681/568 632/678/565
f 184/579/474 28/578/150 271/687/574 633/681/568
f 633/681/568 271/687/574 272/688/575 636/682/569
f 636/682/569 272/688/575 273/689/576 639/685/572
f 639/685/572 273/689/576 36/690/486 232/691/577
f 638/683/570 639/685/572 232/691/577 233/692/578
f 637/684/571 638/683/570 233/692/578 234/693/579
f 274/694/580 637/684/571 234/693/579 34/695/514
f 275/696/581 634/680/567 637/684/571 274/694/580
f 276/686/573 631/677/564 634/680/567 275/696/581
f 640/697/582 641/698/583 644/699/584 643/700/585
f 641/698/583 642/701/586 645/702/587 644/699/584
f 643/700/585 644/699/584 647/703/588 646/704/589
f 644/699/584 645/702/587 648/705/590 647/703/588
f 31/302/256 201/528/436 640/697/582 259/471/379
f 201/528/436 200/527/435 641/698/583 640/697/582
f 200/527/435 199/526/434 642/701/586 641/698/583
f 199/526/434 27/525/433 270/706/558 642/701/586
f 642/701/586 270/706/558 269/707/563 645/702/587
f 645/702/587 269/707/563 268/708/562 648/705/590
f 648/705/590 268/708/562 35/646/538 247/645/537
f 647/703/588 648/705/590 247/645/537 248/644/536
f 646/704/589 647/703/588 248/644/536 249/642/534
f 261/473/381 646/704/589 249/642/534 39/474/382
f 260/472/380 643/700/585 646/704/589 261/473/381
f 259/471/379 640/697/582 643/700/585 260/472/380
f 649/709/591 650/710/592 653/711/593 652/712/594
f 650/710/592 651/713/595 654/714/596 653/711/593
f 652/712/594 653/711/593 656/715/597 655/716/598
f 653/711/593 654/714/596 657/717/599 656/715/597
f 29/283/240 195/544/452 649/709/591 265/451/362
f 195/544/452 194/543/451 650/710/592 649/709/591
f 194/543/451 193/542/450 651/713/595 650/710/592
f 193/542/450 26/541/449 276/718/573 651/713/595
f 651/713/595 276/718/573 275/719/581 654/714/596
f 654/714/596 275/719/581 274/720/580 657/717/599
f 657/717/599 274/720/580 34/622/514 241/621/513
f 656/715/597 657/717/599 241/621/513 242/620/512
f 655/716/598 656/715/597 242/620/512 243/618/510
f 267/453/364 655/716/598 243/618/510 37/454/365
f 266/452/363 652/712/594 655/716/598 267/453/364
f 265/451/362 649/709/591 652/712/594 266/452/363
f 658/721/600 659/722/601 662/723/602 661/724/603
f 659/722/601 660/725/604 663/726/605 662/723/602
f 661/724/603 662/723/602 665/727/606 664/728/607
f 662/723/602 663/726/605 666/729/608 665/727/606
f 28/169/150 189/167/148 658/721/600 271/730/574
f 189/167/148 188/166/147 659/722/601 658/721/600
f 188/166/147 187/165/146 660/725/604 659/722/601
f 187/165/146 32/164/145 264/470/378 660/725/604
f 660/725/604 264/470/378 263/480/388 663/726/605
f 663/726/605 263/480/388 262/478/386 666/729/608
f 666/729/608 262/478/386 40/479/387 235/598/490
f 665/727/606 666/729/608 235/598/490 236/597/489
f 664/728/607 665/727/606 236/597/489 237/595/487
f 273/731/576 664/728/607 237/595/487 36/594/486
f 272/732/575 661/724/603 664/728/607 273/731/576
f 271/730/574 658/721/600 661/724/603 272/732/575
f 667/733/609 668/734/610 671/735/611 670/736/612
f 668/734/610 669/737/613 672/738/614 671/735/611
f 670/736/612 671/735/611 674/739/615 673/740/616
f 671/735/611 672/738/614 675/741/617 674/739/615
f 46/742/618 306/743/619 667/733/609 277/744/620
f 306/743/619 305/745/621 668/734/610 667/733/609
f 305/745/621 304/746/622 669/737/613 668/734/610
f 304/746/622 47/747/547 297/748/545 669/737/613
f 669/737/613 297/748/545 296/749/544 672/738/614
f 672/738/614 296/749/544 295/750/543 675/741/617
f 675/741/617 295/750/543 43/751/542 288/752/623
f 674/739/615 675/741/617 288/752/623 287/753/624
f 673/740/616 674/739/615 287/753/624 286/754/625
f 279/755/626 673/740/616 286/754/625 41/756/627
f 278/757/628 670/736/612 673/740/616 279/755/626
f 277/744/620 667/733/609 670/736/612 278/757/628
f 676/758/629 677/759/630 680/760/631 679/761/632
f 677/759/630 678/762/633 681/763/634 680/760/631
f 679/761/632 680/760/631 683/764/635 682/765/636
f 680/760/631 681/763/634 684/766/637 683/764/635
f 42/767/518 282/768/638 676/758/629 289/769/519
f 282/768/638 281/770/639 677/759/630 676/758/629
f 281/770/639 280/771/640 678/762/633 677/759/630
f 280/771/640 44/772/499 285/773/497 678/762/633
f 678/762/633 285/773/497 284/774/496 681/763/634
f 681/763/634 284/774/496 283/775/495 684/766/637
f 684/766/637 283/775/495 48/776/494 301/777/641
f 683/764/635 684/766/637 301/777/641 302/778/642
f 682/765/636 683/764/635 302/778/642 303/779/643
f 291/780/521 682/765/636 303/779/643 45/781/523
f 290/782/520 679/761/632 682/765/636 291/780/521
f 289/769/519 676/758/629 679/761/632 290/782/520
f 685/783/644 686/784/645 689/785/646 688/786/647
f 686/784/645 687/787/648 690/788/649 689/785/646
f 688/786/647 689/785/646 692/789/650 691/790/651
f 689/785/646 690/788/649 693/791/652 692/789/650
f 45/781/523 303/779/643 685/783/644 292/792/653
f 303/779/643 302/778/642 686/784/645 685/783/644
f 302/778/642 301/777/641 687/787/648 686/784/645
f 301/777/641 48/776/494 300/793/654 687/787/648
f 687/787/648 300/793/654 299/794/655 690/788/649
f 690/788/649 299/794/655 298/795/656 693/791/652
f 693/791/652 298/795/656 47/747/547 304/746/622
f 692/789/650 693/791/652 304/746/622 305/745/621
f 691/790/651 692/789/650 305/745/621 306/743/619
f 294/796/657 691/790/651 306/743/619 46/742/618
f 293/797/658 688/786/647 691/790/651 294/796/657
f 292/792/653 685/783/644 688/786/647 293/797/658
f 694/798/659 695/799/660 698/800/661 697/801/662
f 695/799/660 696/802/663 699/803/664 698/800/661
f 697/801/662 698/800/661 701/804/665 700/805/666
f 698/800/661 699/803/664 702/806/667 701/804/665
f 33/499/407 231/497/405 694/798/659 324/807/668
f 231/497/405 230/496/404 695/799/660 694/798/659
f 230/496/404 229/495/403 696/802/663 695/799/660
f 229/495/403 38/459/367 319/808/669 696/802/663
f 696/802/663 319/808/669 320/809/670 699/803/664
f 699/803/664 320/809/670 321/810/671 702/806/667
f 702/806/667 321/810/671 46/811/618 277/812/620
f 701/804/665 702/806/667 277/812/620 278/813/628
f 700/805/666 701/804/665 278/813/628 279/814/626
f 322/815/672 700/805/666 279/814/626 41/816/627
f 323/817/673 697/801/662 700/805/666 322/815/672
f 324/807/668 694/798/659 697/801/662 323/817/673
f 703/818/674 704/819/675 707/820/676 706/821/677
f 704/819/675 705/822/678 708/823/679 707/820/676
f 706/821/677 707/820/676 710/824/680 709/825/681
f 707/820/676 708/823/679 711/826/682 710/824/680
f 40/479/387 252/477/385 703/818/674 313/599/491
f 252/477/385 251/476/384 704/819/675 703/818/674
f 251/476/384 250/475/383 705/822/678 704/819/675
f 250/475/383 39/474/382 255/643/535 705/822/678
f 705/822/678 255/643/535 254/656/548 708/823/679
f 708/823/679 254/656/548 253/654/546 711/826/682
f 711/826/682 253/654/546 47/655/547 298/827/656
f 710/824/680 711/826/682 298/827/656 299/828/655
f 709/825/681 710/824/680 299/828/655 300/829/654
f 315/601/493 709/825/681 300/829/654 48/602/494
f 314/600/492 706/821/677 709/825/681 315/601/493
f 313/599/491 703/818/674 706/821/677 314/600/492
f 712/830/234 713/831/234 716/832/683 715/833/684
f 713/831/234 714/834/234 717/835/685 716/832/683
f 715/833/684 716/832/683 719/836/686 718/837/687
f 716/832/683 717/835/685 720/838/688 719/836/686
f 38/459/367 246/457/234 712/830/234 319/808/669
f 246/457/234 245/456/234 713/831/234 712/830/234
f 245/456/234 244/455/234 714/834/234 713/831/234
f 244/455/234 37/454/365 312/619/511 714/834/234
f 714/834/234 312/619/511 311/632/524 717/835/685
f 717/835/685 311/632/524 310/630/522 720/838/688
f 720/838/688 310/630/522 45/631/523 292/839/653
f 719/836/686 720/838/688 292/839/653 293/840/658
f 718/837/687 719/836/686 293/840/658 294/841/657
f 321/810/671 718/837/687 294/841/657 46/811/618
f 320/809/670 715/833/684 718/837/687 321/810/671
f 319/808/669 712/830/234 715/833/684 320/809/670
f 721/842/689 722/843/690 725/844/691 724/845/692
f 722/843/690 723/846/693 726/847/694 725/844/691
f 724/845/692 725/844/691 728/848/695 727/849/696
f 725/844/691 726/847/694 729/850/697 728/848/695
f 35/675/538 240/673/561 721/842/689 256/851/539
f 240/673/561 239/672/560 722/843/690 721/842/689
f 239/672/560 238/671/559 723/846/693 722/843/690
f 238/671/559 33/670/407 324/852/668 723/846/693
f 723/846/693 324/852/668 323/853/673 726/847/694
f 726/847/694 323/853/673 322/854/672 729/850/697
f 729/850/697 322/854/672 41/756/627 286/754/625
f 728/848/695 729/850/697 286/754/625 287/753/624
f 727/849/696 728/848/695 287/753/624 288/752/623
f 258/855/541 727/849/696 288/752/623 43/751/542
f 257/856/540 724/845/692 727/849/696 258/855/541
f 256/851/539 721/842/689 724/845/692 257/856/540
f 730/857/698 731/858/699 734/859/700 733/860/701
f 731/858/699 732/861/702 735/862/703 734/859/700
f 733/860/701 734/859/700 737/863/704 736/864/705
f 734/859/700 735/862/703 738/865/706 737/863/704
f 34/695/514 234/693/579 730/857/698 307/866/515
f 234/693/579 233/692/578 731/858/699 730/857/698
f 233/692/578 232/691/577 732/861/702 731/858/699
f 232/691/577 36/690/486 318/867/488 732/861/702
f 732/861/702 318/867/488 317/868/500 735/862/703
f 735/862/703 317/868/500 316/869/498 738/865/706
f 738/865/706 316/869/498 44/772/499 280/771/640
f 737/863/704 738/865/706 280/771/640 281/770/639
f 736/864/705 737/863/704 281/770/639 282/768/638
f 309/870/517 736/864/705 282/768/638 42/767/518
f 308/871/516 733/860/701 736/864/705 309/870/517
f 307/866/515 730/857/698 733/860/701 308/871/516
